<svg width="48" height="48" viewBox="0 0 48 48" fill="none" xmlns="http://www.w3.org/2000/svg">
<path d="M42.75 0H5.25C2.35051 0 0 2.35051 0 5.25V42.75C0 45.6495 2.35051 48 5.25 48H42.75C45.6495 48 48 45.6495 48 42.75V5.25C48 2.35051 45.6495 0 42.75 0Z" fill="#092E20"/>
<path d="M34.9457 17.6621V30.0795C34.9457 34.3583 34.6326 36.4103 33.6936 38.1842C32.8238 39.889 31.6759 40.9671 29.3108 42.1498L24.3364 39.7845C26.7019 38.6715 27.8498 37.6976 28.5801 36.2014C29.3455 34.6712 29.5892 32.8971 29.5892 28.2362V17.6621H34.9457V17.6621ZM26.424 9.38965V34.1845C23.6762 34.7061 21.6587 34.9148 19.4674 34.9148C12.928 34.9148 9.51923 31.9585 9.51923 26.2885C9.51923 20.8273 13.1369 17.2796 18.7367 17.2796C19.6064 17.2796 20.2673 17.349 21.0674 17.5577V9.39002H26.4242L26.424 9.38965ZM19.2587 21.5925C16.5456 21.5925 14.9802 23.2622 14.9802 26.1838C14.9802 29.0365 16.476 30.6015 19.224 30.6015C19.815 30.6015 20.3022 30.5668 21.0674 30.4628V21.8706C20.4413 21.6621 19.9197 21.5925 19.2587 21.5925V21.5925ZM34.9457 9.41815V14.9141H29.5892V9.41834H34.9457V9.41815Z" fill="#FFFFFD"/>
</svg>
