<svg width="67" height="48" viewBox="0 0 67 48" fill="none" xmlns="http://www.w3.org/2000/svg">
<g clip-path="url(#clip0)">
<path d="M65.6173 18.2911C64.1084 17.2533 60.6509 16.8641 57.9478 17.383C57.6338 14.7884 56.1878 12.5184 53.6732 10.5076L52.2275 9.46975L51.2214 10.9616C49.9644 12.9076 49.3357 15.6319 49.5242 18.2265C49.587 19.1344 49.9013 20.756 50.8443 22.183C49.9644 22.7019 48.1412 23.3506 45.7525 23.3506H0.302458L0.176833 23.8695C-0.263378 26.4638 -0.263378 34.5717 4.89143 40.7984C8.78895 45.5333 14.5724 47.9333 22.1787 47.9333C38.6487 47.9333 50.8443 40.0847 56.5649 25.88C58.828 25.9449 63.6685 25.88 66.1203 21.0152C66.1831 20.8854 66.3087 20.626 66.7487 19.6533L67.0002 19.1344L65.6173 18.2911ZM36.6371 0H29.7225V6.48623H36.6371V0ZM36.6371 7.78352H29.7225V14.2698H36.6371V7.78326V7.78352ZM28.465 7.78352H21.5504V14.2698H28.465V7.78326V7.78352ZM20.2928 7.78352H13.3779V14.2698H20.2928V7.78326V7.78352ZM12.1206 15.567H5.20576V22.0533H12.1204V15.5668L12.1206 15.567ZM20.2928 15.567H13.3779V22.0533H20.2928V15.5668V15.567ZM28.465 15.567H21.5504V22.0533H28.465V15.5668V15.567ZM36.6374 15.567H29.7223V22.0533H36.6374V15.5668V15.567ZM44.8096 15.567H37.8944V22.0533H44.8096V15.5668V15.567Z" fill="#2396ED"/>
</g>
<defs>
<clipPath id="clip0">
<rect width="67" height="48" fill="white"/>
</clipPath>
</defs>
</svg>
