<svg width="37" height="48" viewBox="0 0 37 48" fill="none" xmlns="http://www.w3.org/2000/svg">
<g clip-path="url(#clip0)">
<path d="M10.9687 29.6687C9.57076 28.5496 8.07915 27.4773 7.06014 25.9662C4.91499 23.3016 3.2638 20.2172 2.13495 16.9754C1.45245 14.8671 1.21874 12.6071 0.33837 10.5807C-0.581284 9.10846 0.496808 7.50024 2.08147 7.0325C2.78648 6.89419 4.02688 6.21693 2.52954 6.7016C1.18691 7.70333 1.05758 5.79121 2.43405 5.67011C3.37349 5.54333 3.71933 4.76118 3.39772 4.05708C2.38888 3.38741 5.84311 2.65268 4.10488 1.65372C2.2954 -0.333389 6.63701 -0.71593 5.56566 1.54124C5.30958 3.27668 8.60049 1.22245 7.83626 3.22693C8.61268 4.1897 10.7429 3.4465 10.6894 4.79634C11.8201 4.87541 12.2083 5.84285 13.2686 5.91726C14.3693 6.42294 16.3628 6.82065 16.7367 8.08193C15.6456 8.96066 13.1196 6.26654 12.9976 8.69936C13.3277 12.294 13.2435 15.9967 14.5355 19.4196C15.1466 21.4919 16.6289 23.1231 17.9668 24.7375C19.2476 26.3181 20.9821 27.4316 22.7505 28.3684C24.3012 29.1125 25.973 29.6056 27.6635 29.9158C28.3488 29.3824 29.5591 27.3991 30.6279 28.2348C30.6795 29.1757 28.5064 30.2002 30.526 30.0961C31.7129 29.7317 32.5352 31.029 33.512 29.8585C34.4122 30.9433 37.2529 29.1659 36.6127 31.3831C35.7464 31.9518 34.4834 31.6082 33.6163 32.3906C32.1865 31.6636 31.048 33.0403 29.4645 32.8667C27.7066 33.1871 25.9175 33.3161 24.1354 33.3187C21.211 33.0839 18.2249 32.9849 15.443 31.9487C13.8754 31.4854 12.3462 30.577 10.9687 29.6687V29.6687ZM13.4384 30.7582C14.9685 31.4308 16.465 32.1406 18.1423 32.3552C20.8032 32.7312 23.5511 33.3111 26.2213 32.7827C25.0129 32.2275 23.763 32.9983 22.5592 32.3858C21.1153 32.7016 19.5657 32.3047 18.0971 32.1091C16.4282 31.3527 14.6264 30.8328 13.0634 29.8499C11.1094 29.124 14.0733 30.7811 14.601 30.9158C15.8218 31.6205 13.2583 30.554 12.8962 30.2611C11.8736 29.6773 11.7434 29.7994 12.7953 30.3919C13.0071 30.5179 13.2163 30.6505 13.4384 30.7582V30.7582ZM10.5263 28.6642C12.0096 29.2232 10.5197 27.6032 9.84089 27.6969C9.53979 27.1654 8.69054 26.8295 9.28959 26.5443C8.21236 26.9251 8.16074 25.097 7.6546 25.3586C6.51442 24.9922 7.21097 23.6946 5.85243 22.8973C5.72854 22.0575 4.5032 21.3296 4.1132 20.0635C3.94071 19.4149 2.72841 17.5537 3.47285 19.2859C4.1066 20.9535 5.2214 22.3829 6.14966 23.8092C6.86972 25.1674 7.72113 26.5882 9.03279 27.4354C9.47541 27.8676 9.90183 28.5286 10.5261 28.6642H10.5263ZM6.25476 23.8911C6.30609 23.6631 6.52575 24.3843 6.25476 23.8911V23.8911ZM12.3031 29.3338C12.6311 29.1841 11.8305 29.145 12.3031 29.3338V29.3338ZM13.1074 29.6326C13.0241 29.2203 12.7399 29.8634 13.1074 29.6326V29.6326ZM14.1154 30.0601C14.5944 29.5951 13.3756 29.7668 14.1154 30.0601V30.0601ZM15.8424 31.0395C16.1339 30.6017 14.9095 30.8746 15.8424 31.0395V31.0395ZM12.5263 28.6872C13.2705 28.1967 11.5633 28.6803 12.5263 28.6872V28.6872ZM13.2819 29.0706C13.2603 28.8119 13.0128 29.1869 13.2819 29.0706V29.0706ZM17.0593 31.4699C17.6668 31.8602 20.6063 32.3247 18.7659 31.6301C18.4572 31.696 15.3529 30.7362 17.0593 31.4699V31.4699ZM11.0627 26.717C11.0036 26.4578 10.1192 26.4299 11.0627 26.717V26.717ZM12.8205 27.7609C13.2789 27.4356 11.8708 27.51 12.8205 27.7609V27.7609ZM14.2999 28.6834C14.9572 28.4316 13.235 28.4306 14.2999 28.6834V28.6834ZM10.3463 25.9242C11.0589 26.4802 13.2211 25.9957 11.4376 25.5923C10.6266 25.1524 8.79836 24.8511 10.0446 25.8575L10.3463 25.9242ZM15.3025 29.0019C15.5996 28.4876 14.0572 28.7079 15.3025 29.0019V29.0019ZM13.7965 27.7844C15.5386 28.2854 12.3312 26.6625 13.3664 27.5994L13.5962 27.7053L13.7965 27.7844ZM16.8159 29.56C18.4659 29.576 15.325 29.3283 16.8159 29.56V29.56ZM9.71171 24.9528C9.6469 24.64 9.30479 24.9788 9.71171 24.9528V24.9528ZM19.607 31.1532C19.651 30.5885 19.0687 31.5739 19.607 31.1532V31.1532ZM12.5282 26.7074C12.4278 26.4098 12.0126 26.695 12.5282 26.7074V26.7074ZM9.86814 24.7565C10.8153 24.6984 8.57052 24.3319 9.86814 24.7565V24.7565ZM6.71688 22.6841C6.59887 22.2216 5.68653 21.8534 6.71688 22.6841V22.6841ZM14.9893 28.026C14.8158 27.8245 14.9076 28.0698 14.9893 28.026V28.026ZM20.1375 31.2411C20.1217 30.9328 19.8572 31.3573 20.1375 31.2411V31.2411ZM14.5337 27.547C14.6266 27.1502 13.7256 27.4267 14.5337 27.547V27.547ZM10.6979 25.0732C11.403 24.9967 9.56804 24.5885 10.6979 25.0732V25.0732ZM17.1862 29.1757C18.285 28.7329 16.1154 28.9599 17.1862 29.1757V29.1757ZM13.8117 26.845C15.0774 27.0107 12.3051 25.9681 13.5333 26.7513L13.8117 26.845ZM18.2107 29.5972C19.3932 28.8789 19.0032 31.2811 20.2165 29.8004C21.4127 28.9113 19.1831 30.8994 20.6571 29.9588C21.724 29.2327 23.2991 30.3032 24.294 30.6514C25.0092 30.6161 25.705 31.2811 26.439 30.8764C27.851 30.489 23.677 30.3023 24.771 29.6161C23.4791 29.999 22.5248 29.1602 21.889 28.3178C20.4394 27.9771 18.764 27.2236 18.0402 25.9175C17.7448 25.4282 18.4661 25.9872 17.7853 25.1858C16.9124 24.3958 16.4765 23.498 15.8903 22.5374C15.1899 22.1576 15.1075 21.0386 15.0371 22.5003C15.0428 21.5777 14.1914 20.9566 13.9832 21.2142C13.9795 20.3259 14.8947 20.7714 14.2542 20.1142C14.1166 19.1934 13.6626 18.2339 13.5265 17.1939C13.3149 16.693 13.4964 15.6198 12.8029 16.754C12.5505 17.9533 12.7194 15.2811 13.1123 16.1617C13.6279 15.263 12.9265 15.3687 12.8984 15.4929C13.2342 14.7345 13.1113 13.6582 12.8103 14.0685C12.9894 13.2642 13.0935 11.1091 12.5432 11.4917C12.8769 10.6503 13.1761 7.64293 11.7264 8.78997C11.1395 8.79843 10.1224 9.00662 9.64231 9.24983C11.149 10.0952 9.49032 9.55505 8.87622 9.42053C8.7965 10.2028 8.18899 9.86508 7.42949 9.87266C8.64279 10.0253 6.83875 11.1347 6.14421 10.7037C5.24033 11.1425 6.92335 12.2397 6.16199 12.5792C6.2559 13.0897 4.77806 12.3943 4.89348 13.5754C4.0167 13.1993 4.77347 14.9758 5.21222 14.3749C6.70397 14.786 6.26236 15.722 6.29978 16.6119C6.05689 17.1299 5.09967 15.3937 6.08686 15.4739C5.30772 14.1867 5.22541 15.0082 4.57833 15.6064C4.42835 15.6494 6.22852 16.4573 5.09881 16.8562C6.09259 17.0127 6.1217 17.898 6.3243 18.4581C6.92148 19.0913 6.79846 17.7585 7.51408 18.5201C7.061 17.8417 5.11745 16.6089 6.68247 17.0042C6.67386 16.322 6.39914 15.7714 6.87919 15.7847C7.35464 14.9099 6.38136 17.9428 7.45214 16.8305C7.74823 16.6989 7.8225 15.9547 8.35502 16.9011C9.12843 17.6758 8.63447 18.2365 7.54305 17.5268C7.73805 18.2013 9.00282 18.4416 8.76467 19.496C9.01673 20.4233 9.36945 20.0816 9.67686 20.0282C9.91775 20.9289 10.055 20.2668 10.0661 19.8374C11.1696 20.0781 10.9108 20.742 11.2567 21.2056C12.017 21.5546 10.1682 18.8386 11.4734 20.3889C12.8468 21.651 11.989 22.1776 10.7562 21.9755C11.5362 21.9113 11.7873 23.0489 12.7636 23.0088C13.6533 23.4399 14.2562 25.0942 12.7223 24.4053C12.1906 23.9168 10.3069 23.3149 11.8457 24.2432C13.2652 24.9129 14.394 25.3126 15.7637 26.1533C16.7436 26.865 17.1672 27.6804 17.5385 27.8419C16.7145 28.2424 15.056 27.5222 16.2878 27.3019C15.519 27.1597 14.6547 26.7639 15.3905 27.7379C16.0168 28.2702 17.6079 28.2138 17.894 28.2739C17.6521 28.8159 17.2368 28.8589 17.9033 28.9008C17.1597 29.3043 18.1424 29.3674 18.2108 29.5972H18.2107ZM16.69 25.2268C16.2372 24.7451 16.12 23.8436 16.6094 24.6275C16.8608 24.7306 17.4131 26.1018 16.69 25.2268ZM21.6434 28.4285C21.9256 28.4096 21.6517 28.6468 21.6434 28.4285V28.4285ZM15.9758 24.0458C15.9577 23.3178 16.1387 24.6075 15.9758 24.0458V24.0458ZM15.4834 23.3722C14.9135 22.2532 16.2006 23.6889 15.4834 23.3722V23.3722ZM9.51656 19.1822C9.85136 19.0913 9.6816 19.7639 9.51656 19.1822V19.1822ZM14.2655 21.8009C14.4709 21.0157 14.5066 22.4593 14.2655 21.8009V21.8009ZM10.9108 19.4271C10.6747 18.9941 11.4051 19.8338 10.9108 19.4271V19.4271ZM13.7892 20.366C13.2501 19.1372 14.1718 19.6943 13.9092 20.5673L13.7892 20.366ZM8.82474 16.9972C8.58386 16.5938 8.18526 15.4108 8.31373 15.0494C8.42901 15.6379 9.54294 17.5813 8.8593 15.8546C8.10468 14.4073 9.76232 16.3238 9.93294 16.6855C10.0127 17.0442 9.46695 16.5873 9.8363 17.4295C9.16226 16.4707 9.43871 17.9591 8.82474 16.9972ZM7.29084 15.9212C7.35364 14.9834 7.64155 16.5642 7.29084 15.9212V15.9212ZM7.98094 16.1634C8.31 15.4558 8.53869 17.15 7.98094 16.1634V16.1634ZM6.32043 14.8566C5.74933 14.2783 5.33582 13.7461 6.34753 14.4977C6.73666 14.5131 5.48135 13.2872 6.44144 14.1085C7.45014 14.2957 6.93912 15.7926 6.32043 14.8566ZM7.19233 14.8337C7.52441 14.4989 7.36869 15.1629 7.19233 14.8337V14.8337ZM7.72959 15.0082C7.22603 14.0494 8.33997 15.4109 7.72959 15.0082V15.0082ZM6.66268 13.9713C5.00231 12.4666 8.74875 14.7573 6.93367 14.2497L6.66268 13.9713ZM11.4208 16.7836C10.7018 16.3457 11.2296 13.6975 11.4753 15.5082C12.1739 15.2781 11.4366 16.4441 11.9571 16.4326C11.8756 17.1679 11.6422 17.4326 11.4208 16.7836ZM13.1807 17.8426C13.251 17.0442 13.3288 18.3885 13.1807 17.8426V17.8426ZM12.8752 17.5344C12.9539 17.1939 12.8826 17.9361 12.8752 17.5344V17.5344ZM6.98787 13.477C5.92111 11.9791 10.0885 14.9919 7.67152 13.8568C7.41917 13.7891 7.11462 13.7652 6.98787 13.477ZM10.3773 15.3051C10.2762 14.0438 10.6024 15.5138 10.3773 15.3051V15.3051ZM12.95 16.9848C13.1487 16.2666 12.9652 17.4602 12.95 16.9848V16.9848ZM7.15204 12.9056C7.78594 12.7673 9.7791 14.038 7.94896 13.2681C7.74565 13.0391 7.31148 13.1431 7.15204 12.9054V12.9056ZM12.5964 15.6665C12.6642 14.3768 12.9755 14.8966 12.5993 15.8517L12.5964 15.6664V15.6665ZM7.62363 12.4563C7.88229 12.0707 6.93711 10.7133 7.75941 11.9696C8.115 12.2568 8.78789 12.4505 8.19357 12.5716C9.12828 13.4104 7.96588 12.7988 7.62363 12.4563ZM12.3273 15.264C12.5057 13.7948 12.485 16.1245 12.3273 15.264V15.264ZM7.08351 11.0997C7.28137 11.0136 7.18846 11.3675 7.08351 11.0997V11.0997ZM8.31086 11.8429C8.62659 11.1682 8.89299 12.5945 8.31086 11.8429V11.8429ZM11.7714 13.8014C11.7685 13.5428 11.8369 14.1782 11.7714 13.8014V13.8014ZM11.5707 13.3503C11.0906 12.1443 12.018 13.9884 11.5707 13.3503V13.3503ZM11.2762 12.5592C11.1959 12.0611 11.55 13.1851 11.2762 12.5592V12.5592ZM11.7562 11.7655C11.4263 11.1748 12.1727 9.16098 12.2562 10.4099C11.9082 11.383 12.1558 11.9269 12.3975 10.6217C12.8459 9.59517 12.301 12.6491 11.7562 11.7655ZM12.2494 8.77085C12.3931 8.5914 12.2814 8.98722 12.2494 8.77085V8.77085ZM11.4256 25.2878C11.2304 25.1142 11.4506 25.3977 11.4256 25.2878V25.2878ZM13.1225 26.1609C14.0665 26.408 14.0619 26.0119 13.2085 25.8936C12.7501 25.4597 11.3015 24.9988 12.5983 25.8402C12.6837 26.0616 12.9547 26.0558 13.1225 26.1609ZM9.77164 23.8958C10.291 24.291 11.7301 25.014 10.5122 24.0468C10.9229 23.561 9.72647 23.3026 10.1232 22.9774C9.11337 22.3484 9.32601 22.4048 10.0342 22.4249C8.82087 21.8724 10.2094 21.9144 10.1439 21.6312C9.676 21.5375 7.81949 20.7914 8.91178 21.6922C7.80171 21.1168 8.64724 21.9068 8.31172 21.8238C7.17613 21.5089 9.32257 22.7035 8.13163 22.4068C8.78244 22.9314 9.88405 23.752 8.40635 22.9619C8.21236 23.2472 9.46408 23.6794 9.7715 23.8958H9.77164ZM11.5463 24.9339C13.7038 25.6409 10.4877 24.0686 11.5463 24.9339V24.9339ZM20.6316 30.534C20.6597 30.098 20.3371 30.906 20.6316 30.534V30.534ZM21.5654 30.9337C22.0632 30.4435 21.5861 31.716 22.3904 30.8136C22.3988 30.1676 22.3661 29.7862 21.466 30.5712C21.2174 30.7115 21.107 31.3058 21.5654 30.9339V30.9337ZM6.74226 21.4615C6.58927 20.8499 5.67047 20.8526 6.74226 21.4615V21.4615ZM7.73876 22.1262C7.36841 21.5015 6.41764 21.5606 7.73876 22.1262V22.1262ZM13.4121 25.6075C13.9664 26.1085 15.9559 25.9748 14.0846 25.6696C13.8079 25.2527 12.3256 25.3529 13.4121 25.6075ZM21.21 30.5086C22.0622 29.7806 20.3841 30.8329 21.21 30.5086V30.5086ZM22.983 31.7477C22.9885 31.514 22.6155 31.8498 22.983 31.7477V31.7477ZM22.9859 31.4204C23.9299 30.4035 22.0717 31.4805 22.9859 31.4204V31.4204ZM4.28941 19.372C3.48504 18.2042 3.78973 17.6794 3.01346 16.7254C2.86606 15.9957 1.68215 14.3413 2.40121 16.0938C3.05934 17.1195 3.25434 18.7069 4.28956 19.372H4.28941ZM22.6895 31.097C24.427 29.9549 21.9771 30.5999 22.6895 31.097V31.097ZM24.0154 31.6254C24.8854 30.8659 23.4649 31.467 24.0154 31.6254V31.6254ZM6.44675 20.1703C6.69537 19.7935 5.80368 20.1218 6.44675 20.1703V20.1703ZM23.7387 31.2648C24.5806 30.7125 23.5447 30.7973 23.586 31.3152L23.7387 31.2648ZM12.3114 23.9359C12.2824 23.562 11.8662 23.9674 12.3114 23.9359V23.9359ZM13.0174 24.3491C12.7924 23.8874 12.6724 24.4216 13.0174 24.3491V24.3491ZM25.0898 31.638C26.1688 30.8459 24.4364 31.4861 24.8638 31.7887L25.0898 31.638ZM24.6764 31.4347C25.5557 30.6857 23.749 31.7666 24.6764 31.4347V31.4347ZM26.7875 32.8647C27.3776 32.463 26.0705 32.735 26.7875 32.8647V32.8647ZM6.98787 19.8985C7.77819 20.0787 10.1483 21.88 8.75047 20.0236C8.03428 19.8079 8.46371 18.0267 7.73332 18.3415C8.22368 19.1753 8.13622 19.5291 7.10674 19.0046C5.814 18.3615 6.38022 19.3224 6.63357 19.5876C6.28831 19.6677 7.0891 19.892 6.98773 19.8984L6.98787 19.8985ZM3.38467 17.0032C3.52619 16.4068 2.08047 13.7251 2.70217 15.6589C2.92614 16.0644 2.90291 16.8322 3.38467 17.0032V17.0032ZM9.99833 21.1521C9.59055 20.8059 9.97868 21.1025 9.99833 21.1521V21.1521ZM11.0006 21.3899C11.0006 20.7582 9.89251 21.1331 11.0006 21.3899V21.3899ZM19.6921 26.9642C19.5262 26.5327 19.0369 26.9545 19.6921 26.9642V26.9642ZM20.1094 27.2741C20.0473 27.0327 19.8682 27.3209 20.1094 27.2741V27.2741ZM23.554 29.4826C23.8851 29.2337 23.1405 29.4504 23.554 29.4826V29.4826ZM5.18398 17.4707C6.13173 17.0975 4.1684 17.2044 5.18398 17.4707V17.4707ZM18.9269 26.2799C18.9159 25.6561 18.3222 26.4356 18.9269 26.2799V26.2799ZM4.80975 16.5823C5.41826 16.3737 4.24626 16.4452 4.80975 16.5823V16.5823ZM6.57622 17.4533C6.56575 17.2483 6.38968 17.5317 6.57622 17.4533V17.4533ZM28.1266 30.9003C28.9095 30.7391 30.6937 31.3059 30.9815 30.6896C30.0309 30.6657 27.6934 30.0064 27.5827 30.8459L27.7909 30.8794L28.1267 30.9003H28.1266ZM7.13771 17.5975C7.15204 16.9648 6.65307 17.5737 7.13771 17.5975V17.5975ZM2.49326 14.3184C2.28235 13.1133 1.69061 14.1361 2.49326 14.3184V14.3184ZM3.60046 14.6018C3.61466 14.2144 2.58675 14.2535 3.60046 14.6018V14.6018ZM4.23335 14.9185C4.05054 14.7676 4.09083 15.1082 4.23335 14.9185V14.9185ZM8.21709 17.5182C8.40478 17.3426 7.77275 17.3885 8.21709 17.5182V17.5182ZM3.81238 14.2049C3.7047 13.2948 2.52882 14.0685 3.81238 14.2049V14.2049ZM1.54049 12.7051C1.50851 12.2854 1.31911 12.8634 1.54049 12.7051V12.7051ZM1.87887 12.4458C1.82367 11.9476 1.58823 12.5086 1.87887 12.4458V12.4458ZM3.74499 13.579C4.53446 13.2642 2.30744 12.9264 3.58369 13.5199L3.74499 13.579ZM28.7259 29.2804C29.2312 28.8092 28.0846 29.1345 28.7259 29.2804V29.2804ZM31.744 30.8717C31.9466 30.2632 31.2338 30.952 31.744 30.8717V30.8717ZM3.93569 12.584C4.01928 11.9946 3.30954 12.7013 3.93569 12.584V12.584ZM1.27982 10.7734C1.1373 9.94153 1.15694 8.48081 2.52122 8.97409C0.700267 9.34233 3.78227 11.2778 3.39313 9.74953C4.15908 9.7879 4.89148 9.28893 4.48915 10.0453C5.99868 9.87646 7.04422 8.54471 8.50199 8.73175C9.63729 8.57827 10.8787 8.46272 12.1023 7.99716C13.1083 7.92363 14.0767 6.82167 13.5257 6.1682C12.1539 6.05003 10.7174 6.22452 9.20141 6.53178C7.5214 6.8866 5.99509 7.56195 4.29974 7.85214C2.64668 8.07828 4.63167 8.4741 4.15808 8.5628C3.29635 8.86715 5.1867 9.07228 4.04653 9.39369C3.34252 9.25742 2.60926 9.01129 2.91022 8.25569C1.32757 8.46549 -0.0638173 9.13326 1.18705 10.7723L1.27996 10.7731L1.27982 10.7734ZM5.09494 8.79653C5.46529 7.4057 7.0825 9.94153 5.70245 8.98167C5.53827 8.85562 5.26628 8.75349 5.09494 8.79653ZM5.16691 8.12191C5.70245 7.7166 5.4511 8.35009 5.16691 8.12191V8.12191ZM5.84669 8.13358C5.89573 7.49338 7.40425 8.4722 6.09532 8.36351L5.84669 8.13343V8.13358ZM6.77681 7.75293C7.1172 7.34822 6.87546 8.11155 6.77681 7.75293V7.75293ZM7.01511 7.59084C7.58133 6.89915 10.2187 7.14892 8.28821 7.52285C7.7706 7.12601 7.37414 7.75658 7.01511 7.59084ZM10.4577 7.05073C10.3726 5.16064 12.1688 7.72142 10.4577 7.05073V7.05073ZM11.4349 7.0449C11.7919 6.09292 12.8214 6.6625 11.6008 6.85319C11.6269 6.95532 11.5642 7.34559 11.4349 7.0449ZM3.55071 12.0955C4.61747 11.4305 2.41799 11.5185 3.55071 12.0955V12.0955ZM4.34003 12.3179C4.71426 11.9135 3.52619 12.1538 4.34003 12.3179V12.3179ZM2.01494 10.6398C2.62432 10.1627 1.29301 10.4586 2.01494 10.6398V10.6398ZM33.5252 30.6981C33.543 30.1447 33.0592 30.947 33.5252 30.6981V30.6981ZM30.3234 28.4742C30.4143 27.8381 29.9118 28.5296 30.3234 28.4742V28.4742ZM34.4056 30.9129C35.258 30.9158 36.9885 30.6427 35.134 30.6437C34.8425 30.6896 33.438 30.6802 34.4056 30.9129ZM5.034 11.9275C5.7241 11.8798 6.11309 11.1536 4.89979 11.1948C3.02005 10.9974 6.5583 11.8503 4.65891 11.6061C4.40398 11.7778 5.0188 11.9752 5.034 11.9275ZM5.64151 12.2406C5.56925 11.7902 5.42758 12.4798 5.64151 12.2406V12.2406ZM6.36244 10.2847C6.66153 9.9068 5.94806 10.1836 6.36244 10.2847V10.2847ZM4.06717 6.38194C5.29926 5.95651 6.98314 5.47753 7.56455 6.59203C6.97282 5.86795 7.32554 5.15422 7.8843 6.21416C8.67462 7.28563 9.07007 5.72672 8.55633 5.36694C9.14248 6.10722 9.80806 6.45752 8.94819 5.41392C9.88305 4.26994 7.07777 5.56361 6.44029 5.55019C6.13374 5.69025 3.27312 6.29236 4.06732 6.38194H4.06717ZM4.7891 4.97594C5.49153 4.43699 7.21843 5.29735 6.11023 4.43962C6.00154 4.34245 3.68391 5.09032 4.7891 4.97594ZM7.34977 5.08361C8.17106 5.10462 6.99547 3.95977 7.9742 4.47872C7.8139 3.94459 6.83417 3.84436 6.35512 3.63077C6.08413 4.11923 6.90614 5.09032 7.34977 5.08361V5.08361ZM5.23818 2.71848C5.52236 2.32645 4.73949 2.91792 5.23818 2.71848V2.71848ZM6.28487 2.97307C7.60943 2.79478 5.94706 2.39313 6.01732 2.95892L6.28472 2.97307H6.28487ZM4.33057 1.4181C3.39758 0.178854 6.08485 1.62615 5.1368 0.328544C4.33902 -0.317194 3.57308 1.05657 4.33057 1.4181V1.4181ZM16.2987 7.97718C16.7265 7.20611 14.5334 6.93722 16.0109 7.70406C16.1468 7.75001 16.1162 8.03043 16.2987 7.97718Z" fill="black"/>
<path d="M7.6148 36.6923C7.52017 37.0725 7.46153 37.7105 7.43959 38.606C7.43959 38.782 7.36173 38.8701 7.20559 38.8701C7.04945 38.8701 6.94076 38.7932 6.87925 38.6402C6.71207 38.2261 6.55377 37.9374 6.40265 37.7725C6.22457 37.5799 5.9877 37.4635 5.69219 37.4238C5.3746 37.3728 4.58341 37.3472 3.31849 37.3472C3.02886 37.3472 2.83917 37.3786 2.75027 37.4412C2.69449 37.4806 2.66668 37.5658 2.66668 37.6964V41.5494C2.66668 41.6798 2.7474 41.7419 2.90871 41.7365C3.40495 41.7307 4.12373 41.6963 5.06518 41.6344C5.24928 41.6114 5.37345 41.5505 5.4374 41.4512C5.50192 41.352 5.56458 41.0958 5.62552 40.6816C5.66423 40.4547 5.79557 40.3667 6.01838 40.4181C6.20765 40.4578 6.28909 40.5457 6.26113 40.6816C6.10484 41.4531 6.05437 42.4567 6.11015 43.6929C6.11603 43.8399 6.02412 43.9196 5.83442 43.931C5.67814 43.948 5.58064 43.8628 5.54192 43.6757C5.3974 42.967 5.12798 42.5883 4.73554 42.5399C4.34267 42.492 3.70276 42.4678 2.81709 42.4678C2.71672 42.4678 2.66668 42.5044 2.66668 42.5782V46.4058C2.66668 46.6894 2.76948 46.8825 2.97552 46.9842C3.13755 47.0692 3.48568 47.146 4.02035 47.2139C4.29378 47.2422 4.41322 47.3645 4.38024 47.5796C4.34655 47.7667 4.10165 47.8406 3.64426 47.8009C2.32371 47.6929 1.234 47.6988 0.376145 47.8182C0.136266 47.8518 0.0168285 47.7526 0.0168285 47.5205C0.0168285 47.3727 0.136266 47.2878 0.376145 47.2652C0.922288 47.2026 1.19514 46.7148 1.19514 45.8022V38.5208C1.19514 38.147 1.12948 37.8593 0.998854 37.6579C0.86766 37.4565 0.623766 37.2734 0.267604 37.1091C0.0445013 37.007 -0.0389472 36.8683 0.0166851 36.6923C0.0445013 36.5848 0.0892366 36.525 0.150174 36.5139C0.20595 36.4967 0.35392 36.508 0.593082 36.548C0.944369 36.6046 1.77212 36.6331 3.07589 36.6331C4.61424 36.6331 5.94297 36.5988 7.06335 36.5309C7.43658 36.5079 7.62355 36.5393 7.62355 36.6243C7.62355 36.6474 7.62068 36.6697 7.6148 36.6923V36.6923Z" fill="black"/>
<path d="M13.0356 47.4896C13.0356 47.7165 12.9101 47.8157 12.6595 47.7873C11.8909 47.7134 10.9377 47.7245 9.80101 47.821C9.57231 47.844 9.43194 47.838 9.3786 47.8045C9.32555 47.7702 9.29945 47.6768 9.29945 47.5232C9.29945 47.3875 9.45101 47.2728 9.75469 47.1789C10.0588 47.0857 10.2102 46.8063 10.2102 46.3414V38.6436C10.2102 38.1841 10.1447 37.8468 10.0141 37.6311C9.88288 37.4156 9.65303 37.2484 9.3244 37.1297C9.15148 37.0669 9.06488 36.9791 9.06488 36.8656C9.06488 36.6955 9.19034 36.568 9.44112 36.4829C9.82022 36.3582 10.2132 36.1657 10.6201 35.9046C10.9545 35.7003 11.1664 35.5986 11.2552 35.5986C11.4612 35.5986 11.5648 35.7428 11.5648 36.0321C11.5648 36.0098 11.5536 36.2932 11.5309 36.8827C11.5147 37.4439 11.509 37.9967 11.5147 38.5415L11.5477 46.1369C11.5477 46.483 11.6314 46.734 11.7986 46.89C11.9658 47.0458 12.2531 47.1493 12.6595 47.2002C12.9101 47.2283 13.0356 47.3248 13.0356 47.4895V47.4896Z" fill="black"/>
<path d="M20.596 46.9881C20.596 47.1074 20.383 47.2871 19.9568 47.5279C19.5303 47.769 19.1889 47.8895 18.9328 47.8895C18.7152 47.8895 18.5232 47.782 18.356 47.5664C18.1888 47.3509 18.0714 47.2434 18.0047 47.2434C17.9547 47.2434 17.69 47.3597 17.2104 47.5918C16.7316 47.8245 16.2493 47.9409 15.7645 47.9409C15.3077 47.9409 14.9257 47.8045 14.6193 47.5328C14.2849 47.232 14.1177 46.8238 14.1177 46.3076C14.1177 45.3266 15.2212 44.6237 17.4282 44.1984C17.8067 44.1245 17.9994 43.9686 18.0045 43.7305L18.0216 43.186C18.0552 42.2562 17.6511 41.7914 16.8095 41.7914C16.5697 41.7914 16.3427 42.0093 16.1278 42.4459C15.9137 42.883 15.6055 43.118 15.2043 43.1523C14.7475 43.1972 14.5188 43.0017 14.5188 42.5652C14.5188 42.2928 14.8589 41.9758 15.5387 41.6125C16.2521 41.2327 16.9378 41.0425 17.5953 41.0425C18.7263 41.0425 19.2864 41.59 19.2753 42.6844L19.2417 46.1884C19.2365 46.5571 19.3898 46.7412 19.7015 46.7412C19.763 46.7412 19.8801 46.7272 20.0526 46.6987C20.2257 46.6704 20.3261 46.6561 20.354 46.6561C20.5153 46.6561 20.596 46.7672 20.596 46.9881V46.9881ZM18.0216 45.0491C18.0273 44.9071 17.9948 44.8132 17.9251 44.7684C17.8554 44.723 17.7459 44.714 17.5953 44.7424C16.2521 44.9864 15.5805 45.4316 15.5805 46.0779C15.5805 46.7301 15.9288 47.056 16.6254 47.056C16.9041 47.056 17.1914 47.0023 17.4862 46.8948C17.8322 46.7696 18.0047 46.6197 18.0047 46.4436L18.0216 45.0489V45.0491Z" fill="black"/>
<path d="M26.8108 46.0095C26.8108 46.6106 26.5831 47.0887 26.1293 47.443C25.6752 47.7975 25.0553 47.9746 24.2693 47.9746C23.7457 47.9746 23.2215 47.918 22.6978 47.8045C22.2462 47.7024 21.9844 47.609 21.912 47.5239C21.8672 47.4441 21.8452 47.0562 21.8452 46.3585C21.8452 46.058 21.912 45.9019 22.0459 45.8908C22.1795 45.8736 22.2939 45.9475 22.3886 46.1117C22.8064 46.8547 23.4809 47.2263 24.4116 47.2263C25.1969 47.2263 25.5899 46.9481 25.5899 46.3922C25.5899 46.1489 25.501 45.9445 25.3223 45.7802C25.1272 45.593 24.7488 45.3746 24.1857 45.1251C23.3719 44.7567 22.8285 44.4336 22.5556 44.1553C22.2601 43.8606 22.1126 43.4638 22.1126 42.9645C22.1126 42.3519 22.3438 41.876 22.8064 41.5358C23.2354 41.2066 23.8095 41.0425 24.5281 41.0425C24.9798 41.0425 25.392 41.079 25.7658 41.1529C26.167 41.2267 26.3759 41.3172 26.3927 41.4252C26.4368 41.7423 26.5292 42.2019 26.6685 42.8033C26.6853 42.8765 26.6069 42.9362 26.4345 42.9816C26.2504 43.0213 26.128 42.9899 26.0665 42.8882C25.6264 42.1564 25.0692 41.7908 24.3946 41.7908C23.6313 41.7908 23.2494 42.0403 23.2494 42.5392C23.2494 42.8173 23.3527 43.0382 23.5587 43.2025C23.7428 43.3443 24.1745 43.5658 24.8545 43.8665C25.5678 44.1782 26.0526 44.4589 26.3092 44.7083C26.6436 45.0313 26.8108 45.4655 26.8108 46.0095Z" fill="black"/>
<path d="M36.6449 47.4981C36.6449 47.6965 36.5137 47.8016 36.2519 47.8128C35.8617 47.8186 35.3514 47.8469 34.7223 47.8978C34.41 47.9604 34.187 47.9209 34.0535 47.7791C33.1729 46.8151 32.4259 45.8057 31.8128 44.7507C31.7629 44.6603 31.6989 44.6149 31.6206 44.6149C31.526 44.6149 31.3618 44.6999 31.1278 44.8702C30.8654 45.0173 30.7348 45.2274 30.7348 45.499C30.7348 45.6922 30.74 45.9698 30.7516 46.3332C30.7628 46.6958 30.8515 46.9338 31.0187 47.0473C31.1359 47.1271 31.4066 47.1891 31.8295 47.2346C32.0915 47.2687 32.2227 47.3679 32.2227 47.5322C32.2227 47.6628 32.2018 47.7438 32.1599 47.7744C32.1183 47.8056 32.0079 47.8128 31.8295 47.7957C31.2724 47.7449 30.3308 47.7733 29.0045 47.8808C28.6701 47.9091 28.4889 47.8665 28.4611 47.7531C28.45 47.7137 28.4441 47.6568 28.4441 47.583C28.4441 47.4076 28.6143 47.274 28.9546 47.1838C29.261 47.1039 29.4141 46.7383 29.4141 46.0862V38.6521C29.4141 38.1873 29.3697 37.8641 29.2801 37.6827C29.1576 37.45 28.901 37.2685 28.511 37.1381C28.3274 37.0761 28.2352 36.9881 28.2352 36.8746C28.2352 36.7098 28.3664 36.5822 28.6281 36.4919C29.0493 36.3486 29.451 36.1513 29.8233 35.9048C30.13 35.701 30.3197 35.5988 30.3917 35.5988C30.6205 35.5988 30.7348 35.7458 30.7348 36.0413C30.7348 36.0011 30.7319 36.2823 30.7261 36.8831C30.7201 37.4388 30.7174 37.9946 30.718 38.5504L30.7348 43.8747C30.7348 44.0224 30.7737 44.0956 30.8515 44.0956C30.9351 44.0956 31.0634 44.0224 31.2364 43.8747C31.6989 43.5061 32.2673 43.0242 32.9413 42.4288C33.0754 42.2871 33.1421 42.1736 33.1421 42.0885C33.1421 41.9356 32.9164 41.8274 32.4653 41.7655C32.2703 41.7423 32.178 41.632 32.1889 41.4335C32.2058 41.235 32.3034 41.15 32.4815 41.1783C32.8833 41.2352 33.4684 41.2664 34.2369 41.2722C34.7722 41.2775 35.3044 41.2806 35.8339 41.2806C36.0063 41.2864 36.0929 41.391 36.0929 41.5954C36.0929 41.788 35.9564 41.893 35.6835 41.9102C35.2539 41.9267 34.8499 42.0259 34.4715 42.2079C33.942 42.4512 33.3761 42.8794 32.7741 43.4921C32.73 43.5262 32.7073 43.5687 32.7073 43.6196C32.7073 43.6988 32.802 43.889 32.9918 44.1896C33.6883 45.267 34.346 46.0804 34.9643 46.6307C35.3602 46.9765 35.7305 47.1494 36.0759 47.1494C36.3326 47.1494 36.4915 47.1678 36.5524 47.2048C36.6141 47.2417 36.6449 47.3396 36.6449 47.4981V47.4981Z" fill="black"/>
</g>
<defs>
<clipPath id="clip0">
<rect width="36.7059" height="48" fill="white"/>
</clipPath>
</defs>
</svg>
