<svg width="48" height="48" viewBox="0 0 48 48" fill="none" xmlns="http://www.w3.org/2000/svg">
<path d="M24 0C10.7452 0 0 10.7451 0 24C0 37.2549 10.7452 48 24 48C37.2549 48 48 37.2549 48 24C48 10.7451 37.2549 0 24 0ZM5.157 24.2501L23.7497 42.843C13.5403 42.7099 5.28994 34.4599 5.157 24.2501V24.2501ZM28.218 42.372L5.628 19.782C7.54388 11.4045 15.0418 5.15381 24 5.15381C30.2619 5.15381 35.8097 8.20875 39.2368 12.9088L36.6274 15.2111C33.8475 11.2245 29.2286 8.61544 24 8.61544C17.3428 8.61544 11.6738 12.8439 9.53081 18.7616L29.2388 38.4692C34.0247 36.7361 37.7055 32.6961 38.9381 27.6923H30.7695V24H42.8464C42.8464 32.9584 36.5959 40.4563 28.2182 42.3718L28.218 42.372Z" fill="#744C9E"/>
</svg>
