<svg width="48" height="48" viewBox="0 0 48 48" fill="none" xmlns="http://www.w3.org/2000/svg">
<g clip-path="url(#clip0)">
<path d="M47.0947 21.8627L26.1375 0.906546C24.9313 -0.300392 22.9738 -0.300392 21.7661 0.906546L17.4142 5.25842L22.9348 10.779C24.2177 10.3455 25.6888 10.6363 26.7114 11.6589C27.7389 12.6881 28.0277 14.1718 27.5837 15.4588L32.904 20.7793C34.1912 20.3359 35.6764 20.6227 36.7044 21.6525C38.1413 23.0887 38.1413 25.4165 36.7044 26.8537C35.2673 28.2911 32.9394 28.2911 31.5015 26.8537C30.4207 25.7719 30.1538 24.1847 30.7009 22.8532L25.7393 17.8916L25.7387 30.9485C26.0984 31.1264 26.4269 31.3613 26.7114 31.6442C28.1482 33.0804 28.1482 35.4084 26.7114 36.8467C25.2742 38.2834 22.9453 38.2834 21.5102 36.8467C20.0734 35.4084 20.0734 33.0806 21.5102 31.6444C21.8545 31.2999 22.2637 31.027 22.7141 30.8417V17.663C22.2631 17.4789 21.8536 17.2059 21.5102 16.8604C20.4216 15.7732 20.1598 14.1759 20.7176 12.8392L15.2756 7.39667L0.905625 21.7657C-0.301875 22.9738 -0.301875 24.9315 0.905625 26.1386L21.8632 47.0951C23.0698 48.3022 25.0269 48.3022 26.235 47.0951L47.0946 26.2359C48.3017 25.0284 48.3017 23.0696 47.0946 21.8627" fill="#DE4C36"/>
</g>
<defs>
<clipPath id="clip0">
<rect width="48" height="48" fill="white"/>
</clipPath>
</defs>
</svg>
