<svg width="50" height="48" viewBox="0 0 50 48" fill="none" xmlns="http://www.w3.org/2000/svg">
<g clip-path="url(#clip0)">
<path d="M24.6402 0C11.0335 0 0 11.0029 0 24.5762C0 35.4346 7.06013 44.6469 16.8505 47.8965C18.0819 48.124 18.5341 47.3633 18.5341 46.7142C18.5341 46.1282 18.511 44.1923 18.5006 42.1388C11.6457 43.6253 10.1992 39.239 10.1992 39.239C9.0783 36.3984 7.46322 35.6429 7.46322 35.6429C5.22772 34.1176 7.63185 34.1491 7.63185 34.1491C10.1061 34.3223 11.4089 36.6816 11.4089 36.6816C13.6067 40.4387 17.1733 39.3525 18.5793 38.7245C18.8005 37.1363 19.439 36.0518 20.1438 35.4382C14.6708 34.8169 8.91756 32.7095 8.91756 23.2927C8.91756 20.6095 9.88006 18.417 11.4563 16.6959C11.2004 16.0769 10.3571 13.5775 11.695 10.1921C11.695 10.1921 13.7641 9.53165 18.4729 12.7114C20.4383 12.1668 22.5462 11.8938 24.6402 11.8844C26.7342 11.8938 28.8438 12.1667 30.8129 12.7114C35.5159 9.53184 37.5822 10.1923 37.5822 10.1923C38.9233 13.5773 38.0796 16.0771 37.8237 16.6959C39.4036 18.417 40.3595 20.6095 40.3595 23.2927C40.3595 32.732 34.5953 34.8104 29.1085 35.4188C29.9923 36.1814 30.7798 37.6771 30.7798 39.97C30.7798 43.2582 30.7513 45.9047 30.7513 46.7142C30.7513 47.3683 31.1948 48.1346 32.4438 47.8931C42.2287 44.64 49.28 35.4311 49.28 24.5764C49.28 11.0029 38.248 0 24.6402 0ZM9.22864 35.0093C9.17436 35.1314 8.98167 35.1681 8.8063 35.0842C8.62747 35.0041 8.52717 34.8376 8.58492 34.7151C8.63805 34.5894 8.83113 34.5542 9.00938 34.6385C9.18841 34.7188 9.29044 34.8868 9.22864 35.0093ZM10.4406 36.0879C10.3232 36.1966 10.0934 36.1461 9.93743 35.9745C9.7763 35.8032 9.74608 35.5739 9.86524 35.4637C9.98651 35.3551 10.2092 35.406 10.3707 35.5772C10.5321 35.7506 10.5632 35.9781 10.4406 36.0879ZM11.2722 37.468C11.1211 37.5727 10.8743 37.4746 10.7217 37.2561C10.5708 37.0376 10.5708 36.7755 10.7249 36.6705C10.878 36.5654 11.1211 36.6599 11.2757 36.8769C11.4262 37.099 11.4262 37.3611 11.272 37.4682L11.2722 37.468ZM12.6782 39.0664C12.5433 39.215 12.2555 39.1751 12.0449 38.9723C11.8295 38.7742 11.7696 38.4931 11.9052 38.3445C12.0418 38.1955 12.3312 38.2374 12.5433 38.4386C12.757 38.6364 12.8224 38.9195 12.6782 39.0664ZM14.4958 39.606C14.4362 39.7985 14.159 39.8861 13.88 39.8043C13.6013 39.72 13.419 39.4946 13.4752 39.3001C13.5331 39.1062 13.8115 39.0152 14.0925 39.1027C14.3709 39.1864 14.5538 39.4103 14.4958 39.6061V39.606ZM16.564 39.835C16.571 40.0376 16.3344 40.2056 16.0414 40.2094C15.7469 40.2159 15.5084 40.052 15.5051 39.8523C15.5051 39.6478 15.7365 39.4813 16.0312 39.4763C16.3242 39.4706 16.564 39.6334 16.564 39.835V39.835ZM18.5959 39.7572C18.6309 39.955 18.4274 40.1581 18.1364 40.2123C17.8505 40.2643 17.5856 40.1422 17.5493 39.9462C17.5138 39.7434 17.7212 39.5403 18.0066 39.4879C18.2981 39.4374 18.5587 39.5562 18.5959 39.7572Z" fill="#161614"/>
</g>
<defs>
<clipPath id="clip0">
<rect width="49.28" height="48" fill="white"/>
</clipPath>
</defs>
</svg>
