<svg width="36" height="48" viewBox="0 0 36 48" fill="none" xmlns="http://www.w3.org/2000/svg">
<g clip-path="url(#clip0)">
<path d="M0.508456 25.9538C0.577146 27.369 1.99232 26.7095 2.62432 26.2698C3.22887 25.8438 3.40749 26.2011 3.46239 25.3767C3.50363 24.8272 3.55852 24.2913 3.53108 23.7418C2.61052 23.6593 1.62128 23.8792 0.865559 24.4287C0.467215 24.7034 -0.247268 25.6103 0.508318 25.9538" fill="#F6D2A2"/>
<path d="M28.7155 43.3479C29.8008 44.0211 31.7931 46.0547 30.1581 47.0439C28.5917 48.4729 27.7126 45.4638 26.3385 45.0516C26.9293 44.241 27.6712 43.4991 28.7155 43.3479Z" fill="#F6D2A2"/>
<path d="M9.28782 45.6424C8.01003 45.8348 7.29555 46.9888 6.22396 47.5797C5.22093 48.1705 4.83624 47.3873 4.75375 47.2225C4.60272 47.1538 4.61637 47.2912 4.36906 47.0439C3.43486 45.5737 5.33086 44.5021 6.3201 43.7738C7.69403 43.4991 8.55969 44.6944 9.28782 45.6424V45.6424Z" fill="#F6D2A2"/>
<path d="M34.7471 25.7752C34.6784 27.1904 33.2633 26.5309 32.6313 26.0912C32.0267 25.6653 31.8481 26.0225 31.7932 25.1981C31.7518 24.6486 31.6969 24.1127 31.7245 23.5632C32.6449 23.4807 33.6341 23.7006 34.3899 24.2501C34.7747 24.5249 35.5028 25.4317 34.7471 25.7752" fill="#F6D2A2"/>
<path d="M30.9961 8.51847C35.9011 6.78729 32.0679 0.0688124 27.7948 3.0364C24.992 0.631985 21.1313 0.192261 17.0781 0.192261C13.1076 0.508537 9.32911 1.23667 6.69118 3.54481C2.43173 0.796812 -1.49765 7.39171 3.50346 9.05433C2.10208 14.495 3.69573 20.0458 3.47587 25.5827C3.2698 30.5565 1.96456 37.22 4.72621 41.6854C7.07573 45.5049 12.1317 46.8652 16.2949 47.0164C21.612 47.2087 28.0557 45.9034 30.6388 40.7512C33.1119 35.8462 32.425 29.7321 32.109 24.4425C31.793 19.0978 32.3837 13.6707 30.996 8.51833L30.9961 8.51847Z" fill="#69D7E2"/>
<path d="M35.1179 24.9371C34.9806 24.6486 34.7196 24.3188 34.4723 24.1401C33.8403 23.6868 33.0295 23.4395 32.1914 23.412C32.164 22.5601 32.1366 21.6258 32.1366 20.4443V19.3726C32.1228 15.9927 32.0815 14.5088 31.8892 12.6539C31.7381 11.1977 31.5044 9.85117 31.1748 8.58717C32.2877 8.16124 33.0159 7.46055 33.3044 6.55366C33.5792 5.71559 33.4418 4.76759 32.9748 3.92952C32.4938 3.10511 31.7244 2.48676 30.8313 2.23959C29.8695 1.97848 28.8254 2.1709 27.8223 2.844C26.9292 2.08842 25.8989 1.51131 24.7447 1.07159C22.6975 0.31614 20.3207 0.0275879 17.0919 0.0275879V0.164967L17.0781 0.0275879C13.6295 0.302347 11.0739 0.838209 8.95807 1.86869C8.10621 2.28083 7.35062 2.77545 6.69117 3.35255C5.67434 2.72055 4.61641 2.56938 3.64096 2.87173C2.73421 3.14648 1.95103 3.79228 1.48386 4.63035C1.01669 5.46842 0.906758 6.43021 1.22276 7.25462C1.53876 8.0789 2.2669 8.72469 3.35241 9.12317C3.00897 10.5108 2.83034 11.981 2.8029 13.6022C2.77531 15.1822 2.844 16.4463 3.09131 19.304C3.26993 21.4337 3.33862 22.4091 3.36621 23.5908C2.43186 23.5495 1.49765 23.7968 0.796827 24.3052C0.549517 24.4839 0.274758 24.7999 0.151172 25.1021C-0.0274487 25.4869 0.0412409 25.8303 0.398482 26.0364C0.453379 26.6959 0.824413 26.9981 1.38772 26.9432C1.79986 26.9019 2.29448 26.6821 2.72041 26.3799C2.8104 26.3147 2.90714 26.2595 3.00897 26.215C3.05021 26.2012 3.07765 26.1875 3.1189 26.1737C3.1189 26.1737 3.20124 26.1463 3.22883 26.1326C3.26993 26.1188 3.31117 26.105 3.33862 26.0775C3.31117 26.7233 3.25628 27.3966 3.13255 28.9354C2.99517 30.6665 2.92648 31.6146 2.89903 32.6726C2.77531 36.6019 3.24248 39.4597 4.64386 41.7268C5.08359 42.4412 5.61945 43.0732 6.25145 43.6503C6.12772 43.7327 5.60565 44.1175 5.44083 44.2411C4.86372 44.6808 4.46538 45.0517 4.23172 45.4639C3.92952 45.9997 3.92952 46.5356 4.27296 47.0989L4.28676 47.1127L4.30055 47.1265C4.45159 47.2775 4.53407 47.3188 4.644 47.3188H4.68496C4.69876 47.3463 4.71255 47.36 4.72634 47.3874C4.76745 47.4561 4.80869 47.511 4.84993 47.5661C5.19338 47.9646 5.67421 48.0607 6.32 47.676C6.66345 47.4974 6.91076 47.2912 7.43283 46.8516L7.46041 46.824C8.29848 46.1097 8.71062 45.8487 9.32897 45.7524L9.54883 45.7112C9.63117 45.7526 9.71366 45.78 9.80979 45.8211C11.7608 46.6043 14.0277 47.0302 16.3223 47.1127C19.2901 47.2226 22.1479 46.8516 24.5659 45.9723C25.2117 45.7388 25.8163 45.4639 26.3934 45.1617C26.7506 45.299 27.0527 45.5876 27.6299 46.2608C27.6574 46.2884 27.6574 46.2884 27.671 46.3157C27.6986 46.3433 27.6986 46.3571 27.7124 46.3708C27.7397 46.412 27.781 46.4394 27.8084 46.4807C28.2619 47.0164 28.5643 47.2775 28.9077 47.4287C29.361 47.621 29.8007 47.5248 30.2541 47.1127C31.051 46.6181 31.1059 45.8487 30.5837 44.9692C30.2128 44.351 29.5672 43.7052 28.9626 43.2931C29.6771 42.5924 30.2953 41.7543 30.7761 40.8062C32.0952 38.1683 32.6036 35.0906 32.5761 31.1337C32.5623 29.7323 32.5073 28.5095 32.3563 26.1737V26.1051C32.425 26.1326 32.4937 26.1738 32.5623 26.2287C32.9883 26.5172 33.4829 26.7508 33.895 26.792C34.4583 26.847 34.8294 26.5447 34.8843 25.8852C35.2277 25.6654 35.2964 25.3219 35.1178 24.9372L35.1179 24.9371ZM30.749 2.528C31.5734 2.74786 32.2879 3.32497 32.7274 4.09435C33.1672 4.86373 33.2908 5.72938 33.0434 6.49876C32.7825 7.30938 32.1229 7.95517 31.0924 8.33986C30.887 7.60427 30.6439 6.87968 30.3643 6.16897C30.7628 5.82552 30.955 5.39959 30.639 4.79517C30.3232 4.19048 29.7735 4.12179 29.2101 4.30042C28.8528 3.83324 28.4545 3.42111 28.0423 3.03642C28.9491 2.45931 29.8834 2.29448 30.749 2.528V2.528ZM1.45655 7.172C1.168 6.42993 1.26414 5.55076 1.70386 4.78138C2.14345 4.01186 2.85793 3.40745 3.70979 3.16014C4.5891 2.89904 5.5371 3.02262 6.47145 3.57228C5.93116 4.05789 5.45138 4.60687 5.04248 5.20731C4.328 4.83628 3.59986 4.76759 3.18772 5.52317C2.76179 6.33393 3.25641 6.84221 3.9571 7.2269C3.86096 7.46055 3.76469 7.70786 3.68234 7.95517C3.58607 8.25738 3.48993 8.57338 3.40759 8.88938C2.40455 8.50469 1.7451 7.91393 1.45655 7.172V7.172ZM3.11903 25.8989C3.10524 25.8989 3.02276 25.9263 3.02276 25.94C2.98165 25.9538 2.94041 25.9676 2.89917 25.995C2.78924 26.0363 2.67931 26.105 2.56952 26.1873C2.18469 26.4622 1.71752 26.6683 1.36028 26.6957C0.948137 26.737 0.71462 26.5583 0.673379 26.0637C0.961931 25.9676 1.08552 25.8989 1.19545 25.7341L0.975586 25.5691C0.893241 25.679 0.810758 25.7203 0.563448 25.8026C0.549655 25.8026 0.549655 25.8026 0.535862 25.8164C0.316137 25.6927 0.274896 25.5004 0.39862 25.2257C0.508551 24.9783 0.755862 24.6898 0.961931 24.5388C1.62138 24.0578 2.50069 23.8243 3.38 23.8792C3.38 24.2226 3.39379 24.5661 3.38 24.8957C3.38 24.9371 3.38 24.9646 3.36621 25.0058C3.35255 25.1981 3.35255 25.2806 3.33876 25.3768C3.29765 25.7752 3.27007 25.8301 3.11903 25.8989V25.8989ZM7.26828 46.6316L7.24069 46.6592C6.73241 47.0988 6.4851 47.2774 6.1691 47.456C5.64703 47.772 5.28979 47.7033 5.04248 47.4011C5.00124 47.3597 4.97379 47.3048 4.94634 47.2636C4.93255 47.2498 4.91876 47.2225 4.9051 47.2087V47.1949C4.93269 46.9476 5.02883 46.769 5.27614 46.3843C5.28993 46.3705 5.28993 46.3705 5.28993 46.3568C5.44097 46.137 5.50965 46.0134 5.57834 45.8622L5.33103 45.7523C5.27614 45.876 5.20745 45.9859 5.06993 46.2057C5.05614 46.2194 5.05614 46.2194 5.05614 46.2332C4.80897 46.5905 4.6989 46.8102 4.644 47.0575H4.63021H4.58897C4.56138 47.0437 4.52028 47.0163 4.46538 46.9614C3.92952 46.1095 4.35545 45.3814 5.56441 44.4745C5.71559 44.3647 6.224 44.0074 6.36138 43.8975C6.38896 43.8975 6.41628 43.8837 6.44386 43.8699C7.18565 44.5021 8.05131 45.0516 9.0131 45.505C9.0131 45.5188 9.0269 45.5326 9.04055 45.5463C8.47724 45.6836 8.03752 45.9721 7.26814 46.6316H7.26828ZM30.3368 45.1341C30.7628 45.8485 30.749 46.4255 30.2131 46.824C30.172 46.7415 30.1444 46.6454 30.0895 46.508C30.0895 46.4942 30.0895 46.4942 30.0757 46.4804C29.8834 45.9583 29.7599 45.7386 29.5262 45.4913L29.3338 45.6836C29.5399 45.876 29.6361 46.0821 29.8284 46.5629C29.8284 46.5767 29.8284 46.5767 29.8422 46.5905C29.9109 46.769 29.9521 46.8789 29.9934 46.9752C29.6361 47.2774 29.3201 47.3324 28.9903 47.1812C28.7018 47.0575 28.427 46.7964 27.9873 46.3019C27.9599 46.2743 27.9324 46.2332 27.905 46.192C27.8912 46.1782 27.8774 46.1644 27.8636 46.137C27.8363 46.1095 27.8363 46.1095 27.8225 46.0821C27.3141 45.4913 27.0119 45.1753 26.6821 44.9966C27.4516 44.557 28.1386 44.0623 28.7568 43.4852C29.3338 43.9112 29.9796 44.5432 30.3368 45.1341V45.1341ZM30.5291 40.6825C29.3476 43.0594 27.2592 44.7356 24.4563 45.7523C22.0657 46.6179 19.2353 46.9752 16.3088 46.8652C11.2665 46.6866 6.89738 44.928 4.85021 41.603C3.47628 39.3909 3.02276 36.5743 3.14648 32.6999C3.18772 31.6419 3.24262 30.6939 3.38 28.9628C3.53117 27.0117 3.57241 26.4484 3.61365 25.5691C3.6411 24.9371 3.6411 24.2913 3.62745 23.6044C3.59986 22.3953 3.53117 21.4335 3.35255 19.2764C3.10524 16.4186 3.03655 15.1683 3.064 13.6019C3.10538 11.5412 3.38 9.72745 3.9571 8.01021C4.89103 5.22083 6.60869 3.33848 9.08179 2.11586C11.1564 1.09931 13.6708 0.577105 17.0919 0.302209C20.2932 0.302209 22.6288 0.59076 24.6486 1.33269C27.0666 2.22579 28.8665 3.792 30.103 6.19655C30.9 8.14745 31.3672 10.2497 31.6145 12.6677C31.8068 14.5088 31.848 15.9927 31.8618 19.3588V20.4305C31.8756 22.093 31.9029 23.2608 31.9717 24.4287C31.9992 24.8821 32.0128 25.0745 32.0815 26.1599C32.2327 28.4956 32.2877 29.7047 32.3014 31.1061C32.329 35.0492 31.8342 38.0857 30.529 40.6825H30.5291ZM34.7334 25.6378C34.7196 25.6378 34.7059 25.624 34.6923 25.624C34.445 25.5417 34.3625 25.4866 34.28 25.3905L34.0601 25.5553C34.1839 25.7203 34.3074 25.789 34.5823 25.885C34.5273 26.3797 34.2938 26.5583 33.8954 26.5171C33.5382 26.4895 33.0709 26.2698 32.6862 26.0087C32.5763 25.9263 32.4665 25.8713 32.3566 25.8164C32.3428 25.8164 32.329 25.8026 32.3152 25.8026C32.2603 25.047 32.2603 24.8546 32.2328 24.4561L32.1916 23.7142C32.9611 23.728 33.7167 23.9615 34.2937 24.3875C34.4999 24.5386 34.7472 24.8272 34.8571 25.0743C34.9945 25.308 34.967 25.5141 34.7334 25.6378V25.6378Z" fill="black"/>
<path d="M19.161 14.3618C19.1748 15.0625 19.3122 15.8319 19.1885 16.5738C18.9961 16.9311 18.639 16.9724 18.323 17.1097C17.8832 17.041 17.5122 16.7524 17.3337 16.3403C17.2238 15.5022 17.3612 14.7053 17.4024 13.8672C17.4024 13.8396 17.9245 13.881 18.3916 14.0184C18.79 14.142 19.161 14.348 19.161 14.3618V14.3618Z" fill="white"/>
<path d="M15.2728 14.4167C14.888 15.8732 15.7812 18.2501 17.2513 16.299C17.1414 15.4746 17.2651 14.6778 17.3062 13.8672C17.32 13.7985 15.2866 14.3205 15.2728 14.4167V14.4167Z" fill="white"/>
<path d="M19.3259 15.0076C19.2983 14.5954 19.2846 14.4305 19.2846 14.2245V14.1283L19.1885 14.1008L17.4573 13.565V13.4688L17.2787 13.5101H17.2649V13.5238L15.314 14.0184L15.2453 14.0322L15.2177 14.1008C14.9155 14.829 14.9842 15.9282 15.3689 16.6014C15.8086 17.3708 16.523 17.3845 17.2513 16.5052C17.3527 16.701 17.4989 16.8702 17.6779 16.9992C17.8569 17.1281 18.0637 17.2131 18.2816 17.2472H18.323L18.3641 17.2334C18.4191 17.2059 18.474 17.1921 18.5703 17.151C18.5841 17.151 18.5841 17.151 18.5977 17.1372C18.9961 16.9998 19.1611 16.8899 19.2984 16.6289L19.3122 16.6151V16.5876C19.3533 16.3403 19.3671 16.0792 19.3671 15.7908C19.3671 15.5846 19.3533 15.3922 19.3259 15.0076V15.0076ZM17.1275 14.4992C17.1137 14.7465 17.1001 14.8427 17.0864 14.9801C17.0588 15.4885 17.0588 15.8732 17.1002 16.2579C16.4543 17.0823 15.946 17.0823 15.6026 16.4639C15.2728 15.887 15.204 14.9114 15.4514 14.2657L17.1824 13.826C17.1688 14.0046 17.1551 14.1832 17.1275 14.4992V14.4992ZM19.0511 16.5328C18.955 16.6976 18.8313 16.7801 18.5015 16.89C18.4877 16.89 18.4877 16.89 18.474 16.9036C18.3917 16.9312 18.3366 16.9585 18.2954 16.9723C17.9244 16.9036 17.6085 16.6563 17.4573 16.3129C17.4161 15.9419 17.4161 15.5572 17.4435 15.0489C17.4573 14.9114 17.4573 14.8152 17.4849 14.5679C17.5122 14.2521 17.526 14.0596 17.526 13.881L19.0237 14.3344C19.0237 14.513 19.0375 14.6779 19.0649 15.0351C19.0924 15.4061 19.106 15.5984 19.106 15.8183C19.106 16.0792 19.0922 16.3129 19.0511 16.5328Z" fill="black"/>
<path d="M7.00245 8.37599C8.26645 13.2946 16.1391 12.0306 15.8369 7.09819C15.4796 1.1902 5.79335 2.33061 7.00231 8.37599" fill="white"/>
<path d="M15.9743 7.08436C15.8918 5.65539 15.2598 4.54256 14.2156 3.84188C13.2813 3.20988 12.0447 2.96256 10.822 3.1136C9.59923 3.2787 8.47247 3.82822 7.73054 4.69388C6.90626 5.65553 6.59026 6.91953 6.87881 8.37594L7.0024 8.34836L6.87881 8.37594C8.17026 13.4319 16.2765 12.2092 15.9743 7.08436V7.08436ZM7.12598 8.3485C6.85123 6.96091 7.15357 5.77925 7.92295 4.88615C8.62364 4.07553 9.68157 3.53981 10.8494 3.38863C12.0173 3.23746 13.1852 3.47112 14.0646 4.07553C15.0399 4.73512 15.6308 5.7656 15.7132 7.12574C16.0017 11.9208 8.34888 13.075 7.12612 8.3485H7.12598Z" fill="black"/>
<path d="M9.17327 9.00792C9.90929 9.00792 10.506 8.36204 10.506 7.5653C10.506 6.76856 9.90929 6.12268 9.17327 6.12268C8.43724 6.12268 7.84058 6.76856 7.84058 7.5653C7.84058 8.36204 8.43724 9.00792 9.17327 9.00792Z" fill="black"/>
<path d="M9.77767 8.26584C9.95219 8.26584 10.0937 8.09978 10.0937 7.89494C10.0937 7.6901 9.95219 7.52405 9.77767 7.52405C9.60315 7.52405 9.46167 7.6901 9.46167 7.89494C9.46167 8.09978 9.60315 8.26584 9.77767 8.26584Z" fill="white"/>
<path d="M18.0432 7.45624C19.0188 13.1031 28.2516 11.6055 26.919 5.91735C25.7236 0.806312 17.7134 2.22148 18.0432 7.45624Z" fill="white"/>
<path d="M27.0425 5.88997C25.8198 0.627766 17.5763 2.07039 17.906 7.46997V7.48377C18.3592 10.1491 20.7363 11.5094 23.3605 11.0697C24.5556 10.8636 25.6274 10.2867 26.3281 9.4348C27.0974 8.48666 27.3722 7.2639 27.0425 5.88997V5.88997ZM26.1221 9.26983C25.4625 10.0668 24.4596 10.6163 23.3192 10.8087C20.8323 11.2209 18.6065 9.94308 18.1669 7.44252C17.8646 2.35894 25.6412 0.998662 26.7952 5.94487C27.0976 7.25011 26.8503 8.39052 26.1221 9.26983V9.26983Z" fill="black"/>
<path d="M20.3102 8.6516C21.0311 8.6516 21.6155 8.00572 21.6155 7.20898C21.6155 6.41224 21.0311 5.76636 20.3102 5.76636C19.5894 5.76636 19.005 6.41224 19.005 7.20898C19.005 8.00572 19.5894 8.6516 20.3102 8.6516Z" fill="black"/>
<path d="M20.9148 7.90952C21.0817 7.90952 21.217 7.74346 21.217 7.53862C21.217 7.33378 21.0817 7.16772 20.9148 7.16772C20.7479 7.16772 20.6125 7.33378 20.6125 7.53862C20.6125 7.74346 20.7479 7.90952 20.9148 7.90952Z" fill="white"/>
<path d="M15.5565 11.4485C14.471 11.5447 13.5917 12.8225 14.1551 13.8392C14.8969 15.1856 16.5594 13.7156 17.5899 13.8529C18.7852 13.8805 19.7608 15.1169 20.7088 14.0728C21.7667 12.9186 20.2554 11.792 19.06 11.2974L15.5565 11.4485Z" fill="#F6D2A2"/>
<path d="M20.8462 12.3692C20.4751 11.902 19.8295 11.4761 19.1287 11.1875L19.1012 11.1737H19.0738L15.5565 11.3112C14.3336 11.4212 13.4545 12.8363 14.0451 13.9079C14.2787 14.3202 14.5947 14.5263 15.0207 14.5537C15.3365 14.5675 15.6665 14.4988 16.1747 14.3202C16.216 14.3064 16.2709 14.2926 16.3396 14.2652C17.0266 14.0316 17.3014 13.9629 17.5761 14.0042H17.5899C17.9196 14.0042 18.1945 14.1003 18.7165 14.3064C19.2936 14.5399 19.4722 14.6087 19.7607 14.6361C20.1593 14.6636 20.5027 14.5263 20.8186 14.1828C21.3545 13.5919 21.327 12.9599 20.8462 12.3692V12.3692ZM20.6125 13.9904C20.3516 14.2789 20.0905 14.3752 19.7745 14.3614C19.5271 14.3476 19.3623 14.2789 18.8127 14.0591C18.2631 13.8256 17.9609 13.7432 17.6037 13.7294C17.2602 13.6881 16.9717 13.7569 16.2434 14.0042C16.1747 14.0316 16.1198 14.0454 16.0786 14.0591C15.0756 14.4025 14.5947 14.3751 14.2649 13.7705C13.7703 12.8776 14.526 11.6685 15.5565 11.5723L19.0325 11.4348C19.6921 11.7097 20.2829 12.1081 20.6263 12.5341C21.0385 13.0286 21.0522 13.5232 20.6125 13.9904V13.9904Z" fill="#231F20"/>
<path d="M19.3349 10.8578C18.9089 9.29148 15.3367 9.52513 15.419 11.3937C15.5976 12.7813 19.747 12.4102 19.3349 10.8578Z" fill="black"/>
</g>
<defs>
<clipPath id="clip0">
<rect width="35.3103" height="48" fill="white"/>
</clipPath>
</defs>
</svg>
