<svg width="43" height="48" viewBox="0 0 43 48" fill="none" xmlns="http://www.w3.org/2000/svg">
<g clip-path="url(#clip0)">
<path fill-rule="evenodd" clip-rule="evenodd" d="M25.428 5.49383L35.2857 11.1855C35.5703 10.8844 35.8969 10.6259 36.2554 10.4182C38.2997 9.24283 40.9074 9.94067 42.0949 11.9852C43.2702 14.0297 42.5724 16.6372 40.5279 17.8247C40.1721 18.0296 39.7886 18.1822 39.3894 18.278V29.6655C39.7843 29.7614 40.1635 29.9131 40.5157 30.1158C42.5724 31.3033 43.2702 33.911 42.0827 35.9555C40.9074 37.9998 38.2875 38.6977 36.243 37.5225C35.847 37.2953 35.4901 37.0056 35.1864 36.6647L25.3887 42.3213C25.5322 42.7558 25.6051 43.2105 25.6045 43.668C25.6045 46.0185 23.6949 47.9407 21.332 47.9407C18.9692 47.9407 17.0595 46.0307 17.0595 43.668C17.0595 43.248 17.1199 42.8423 17.2324 42.4592L7.37737 36.7692C7.09589 37.0643 6.77389 37.318 6.42103 37.5225C4.36437 38.6977 1.7567 37.9998 0.581367 35.9555C-0.5938 33.911 0.104034 31.3033 2.14837 30.1158C2.50055 29.913 2.87979 29.7613 3.2747 29.6653V18.278C2.87543 18.1822 2.49201 18.0296 2.1362 17.8247C0.0917002 16.6495 -0.606133 14.0297 0.5692 11.9852C1.74453 9.94067 4.3642 9.24283 6.4087 10.4182C6.76522 10.6248 7.0902 10.8816 7.3737 11.1807L17.2342 5.4875C17.118 5.09298 17.0591 4.68378 17.0595 4.2725C17.0595 1.91 18.9692 0 21.332 0C23.6949 0 25.6045 1.90983 25.6045 4.2725C25.6045 4.69717 25.5429 5.107 25.428 5.49383ZM24.401 7.2475L34.2822 12.9525C34.1249 13.5025 34.0797 14.0785 34.1495 14.6463C34.2193 15.2141 34.4025 15.7621 34.6884 16.2577C35.2899 17.304 36.2697 17.9977 37.3572 18.268V29.6697C37.3017 29.6832 37.2465 29.698 37.1917 29.7137L24.2862 7.36167C24.3252 7.32433 24.3635 7.28633 24.401 7.24767V7.2475ZM18.3805 7.36417L5.4752 29.7158C5.4194 29.6997 5.36328 29.6847 5.30687 29.6708V18.268C6.39437 17.9977 7.3742 17.304 7.9757 16.2577C8.2621 15.7612 8.44552 15.212 8.51502 14.6431C8.58452 14.0741 8.53867 13.497 8.3802 12.9462L18.2585 7.24283C18.2984 7.284 18.339 7.3245 18.3805 7.364V7.36417ZM22.5259 8.37667L35.4282 30.7233C35.1327 31.0053 34.8793 31.3285 34.676 31.6828C34.4732 32.035 34.3216 32.4143 34.2257 32.8092H8.4387C8.34265 32.4142 8.19091 32.035 7.98803 31.6828C7.78403 31.3309 7.53119 31.0097 7.23703 30.7288L20.1419 8.37767C20.5288 8.48907 20.9294 8.5454 21.332 8.545C21.7465 8.545 22.147 8.48633 22.5259 8.37667ZM24.4917 40.7897L34.3087 35.1217C34.2793 35.0291 34.253 34.9356 34.2299 34.8413H8.4332C8.41953 34.8968 8.4047 34.9518 8.38887 35.0067L18.2539 40.7025C18.6522 40.2883 19.1303 39.9589 19.6593 39.7343C20.1883 39.5097 20.7573 39.3944 21.332 39.3955C21.9268 39.3945 22.5153 39.518 23.0595 39.7581C23.6036 39.9982 24.0915 40.3496 24.4917 40.7897V40.7897Z" fill="#E535AB"/>
</g>
<defs>
<clipPath id="clip0">
<rect width="42.6667" height="48" fill="white"/>
</clipPath>
</defs>
</svg>
