<svg width="95" height="48" viewBox="0 0 95 48" fill="none" xmlns="http://www.w3.org/2000/svg">
<g clip-path="url(#clip0)">
<path d="M23.2983 1.5391C23.6398 0.962002 24.0838 0.407621 24.7217 0.135743C24.9835 0.0906739 25.2453 0.113391 25.5071 0.113391H38.3975C38.0218 0.429972 37.6574 0.758277 37.4071 1.18808C36.7466 2.26313 36.3023 3.4624 35.8926 4.66167C34.731 8.28292 33.9224 12.0053 33.1366 15.7281C32.7824 17.4145 32.4446 19.1044 32.1232 20.7974C31.1438 26.3192 30.1305 31.8293 28.8664 37.2943C28.2632 39.8178 27.6481 42.3409 26.7144 44.7736C26.2815 45.7808 25.8604 46.8555 25.0292 47.6023C24.8356 47.7723 24.642 47.987 24.3684 47.9533H12.9814C12.2071 47.9306 11.4441 47.9983 10.6697 47.9192C11.1823 47.5235 11.6377 47.0479 11.9338 46.4821C12.7878 44.8641 13.3229 43.1104 13.8355 41.3678C14.6327 38.5618 15.2699 35.7217 15.8739 32.8816C16.2497 31.0148 16.6936 29.1589 16.9669 27.2807C17.2744 25.1874 17.7413 23.1168 18.117 21.0348C18.7092 17.9683 19.3354 14.9022 20.0301 11.8584C20.588 9.48219 21.1574 7.117 21.9203 4.79761C22.2964 3.67748 22.7057 2.56872 23.2983 1.5391V1.5391Z" fill="#EB7077" stroke="#EB7077" stroke-width="0.094"/>
<path d="M38.3979 0.113447C38.7279 0.113447 39.0579 0.102088 39.3883 0.113447C40.117 0.49818 40.7321 1.10899 41.0735 1.8671C41.5289 2.72707 41.9051 3.63247 42.2462 4.56023C43.3852 8.05653 44.1596 11.6547 44.934 15.2415C45.594 18.4549 46.2209 21.6797 46.8128 24.9159C46.8585 25.0855 46.8017 25.3233 47.0292 25.3684C46.2091 29.6228 45.4008 33.8886 44.3761 38.1093C43.8178 40.3836 43.2256 42.6466 42.3833 44.8418C41.9276 45.9392 41.4607 47.1384 40.4927 47.9196C39.878 48.0552 39.4337 47.5913 39.0583 47.1725C38.4093 46.3466 38.0103 45.3734 37.6231 44.4002C36.3362 40.9156 35.5508 37.2834 34.7539 33.6625C34.1502 30.8448 33.6148 28.0051 33.0569 25.1764C32.8062 23.739 32.4651 22.3246 32.2715 20.8879C32.2372 20.8652 32.1572 20.8198 32.1232 20.7974C32.4446 19.1044 32.7824 17.4146 33.1366 15.7281C33.9224 12.0054 34.731 8.28261 35.8926 4.66209C36.3023 3.46245 36.7466 2.26319 37.407 1.1885C37.6578 0.758332 38.0218 0.430027 38.3975 0.113447H38.3979Z" fill="#F6A2AD" stroke="#F6A2AD" stroke-width="0.094"/>
<path d="M52.6428 2.07057C53.0532 1.29011 53.554 0.418779 54.4423 0.12455C58.9632 0.101832 63.4841 0.113191 68.0046 0.113191C67.5831 0.531634 67.1391 0.950443 66.8541 1.48211C65.9775 3.04376 65.465 4.77505 64.9414 6.48363C63.5976 11.1906 62.6525 15.9994 61.7528 20.8082C60.9216 25.5495 60.0333 30.2902 59.02 35.0088C58.4963 37.3846 57.9495 39.7495 57.2551 42.0916C56.8108 43.54 56.3443 44.9998 55.6153 46.3464C55.262 46.9572 54.852 47.6251 54.1805 47.9417C49.8646 47.9758 45.5374 47.9417 41.2219 47.9527C40.9826 47.9527 40.7322 47.9527 40.4929 47.919C41.4608 47.1385 41.9277 45.9389 42.3834 44.8411C43.226 42.6463 43.8179 40.3834 44.3762 38.109C45.4009 33.8883 46.2092 29.6229 47.0293 25.3682C48.0198 19.8804 49.0563 14.3926 50.3772 8.97267C50.9919 6.63057 51.5841 4.25438 52.6432 2.07057H52.6428Z" fill="#EB7077" stroke="#EB7077" stroke-width="0.094"/>
<path d="M68.0045 0.113447C68.3688 0.113447 68.7446 0.102088 69.1089 0.113447C69.7011 0.419035 70.1226 0.93934 70.4983 1.471C71.113 2.44419 71.5002 3.54197 71.8988 4.61665C72.8439 7.50215 73.5501 10.4668 74.1991 13.4311C75.0646 17.4253 75.8161 21.4423 76.5561 25.4589C76.7383 26.4207 76.9205 27.3936 77.0344 28.3671L77.2051 28.5368C76.7955 29.1025 76.6358 29.7815 76.4083 30.4264C75.6907 32.7234 75.2239 35.0996 74.8252 37.4644C74.5181 39.3199 74.0966 41.1644 73.5158 42.9522C73.0833 44.276 72.5593 45.5885 71.6942 46.6973C71.2838 47.2293 70.7258 47.6364 70.1111 47.9079C69.166 48.0097 68.6077 47.1047 68.1523 46.4371C67.2072 44.7963 66.695 42.9635 66.1482 41.1754C64.3491 34.5562 63.1761 27.7787 61.9124 21.0462C61.908 20.9964 61.8911 20.9486 61.8631 20.907C61.8352 20.8654 61.7973 20.8315 61.7527 20.8084C62.6524 15.9996 63.5975 11.1908 64.9413 6.48389C65.4649 4.77531 65.9775 3.04401 66.8543 1.48236C67.139 0.950699 67.583 0.531889 68.0045 0.113447V0.113447Z" fill="#F6A2AD" stroke="#F6A2AD" stroke-width="0.094"/>
<path d="M0.0110474 25.855C0.307522 25.8323 0.603629 25.7872 0.910798 25.7872H13.3229C13.8466 25.855 14.3934 25.8099 14.8945 26.0364C15.6284 26.3361 16.2688 26.8242 16.7505 27.4507C16.8076 27.4167 16.9101 27.3262 16.9669 27.2807C16.6937 29.159 16.2497 31.0145 15.8739 32.8817C15.2703 35.7218 14.6327 38.5618 13.8355 41.3678C13.3229 43.1105 12.7879 44.8641 11.9338 46.4822C11.6377 47.0479 11.1823 47.5232 10.6698 47.9193C10.4762 47.9533 10.3283 47.8174 10.1686 47.7155C9.63358 47.3762 9.32604 46.7878 8.99601 46.2561C7.43583 42.7257 7.2651 38.822 6.29713 35.1333C5.80743 33.2892 5.20379 31.456 4.31584 29.7588C3.76898 28.7401 3.09749 27.7673 2.2206 26.9865C1.5716 26.4662 0.819716 26.0474 0.0114161 25.855H0.0110474Z" fill="#F6A2AD" stroke="#F6A2AD" stroke-width="0.094"/>
<path d="M78.2074 27.0318C78.9246 26.2282 79.9951 25.7193 81.077 25.7644H90.4144C91.7124 25.7871 93.0219 25.7193 94.3202 25.7984C93.9331 26.0586 93.4662 26.1605 93.0562 26.3755C91.6328 27.0204 90.4144 28.0951 89.6401 29.4417C88.3989 31.5918 87.9659 34.0585 87.6016 36.4797C87.2373 38.8559 87.2487 41.3112 86.4744 43.6196C85.9507 45.2377 85.1535 46.8668 83.7755 47.9305C79.4943 47.9759 75.2124 47.9418 70.9422 47.9532C70.6576 47.9532 70.3843 47.9642 70.1111 47.9078C70.7258 47.6366 71.2837 47.2292 71.6938 46.6971C72.5592 45.5884 73.0832 44.2759 73.5158 42.952C74.0965 41.1639 74.518 39.3198 74.8252 37.4643C75.2238 35.0994 75.6906 32.7229 76.4082 30.4262C76.6357 29.7813 76.7954 29.1024 77.2051 28.5366C77.5469 28.0387 77.7744 27.4616 78.2074 27.0318V27.0318Z" fill="#EB7077" stroke="#EB7077" stroke-width="0.094"/>
</g>
<defs>
<clipPath id="clip0">
<rect width="94.4" height="48" fill="white"/>
</clipPath>
</defs>
</svg>
