<svg width="43" height="48" viewBox="0 0 43 48" fill="none" xmlns="http://www.w3.org/2000/svg">
<g clip-path="url(#clip0)">
<path d="M21.3333 48.0003C20.6708 48.0003 20.0525 47.8239 19.4783 47.5153L13.6038 44.0316C12.7205 43.5465 13.1622 43.3701 13.4272 43.2819C14.6197 42.8851 14.8405 42.7969 16.0772 42.0912C16.2098 42.003 16.3865 42.0471 16.5188 42.1353L21.0242 44.8253C21.2008 44.9135 21.4217 44.9135 21.5542 44.8253L39.1775 34.6389C39.3542 34.5507 39.4425 34.3743 39.4425 34.1538V13.8248C39.4425 13.6043 39.3542 13.4279 39.1775 13.3397L21.5542 3.19725C21.3775 3.10906 21.1567 3.10906 21.0242 3.19725L3.40083 13.3399C3.22417 13.4281 3.13583 13.6486 3.13583 13.8249V34.1538C3.13583 34.3302 3.22417 34.5507 3.40083 34.6389L8.21533 37.4169C10.8213 38.7398 12.4553 37.1964 12.4553 35.6531V15.5886C12.4553 15.324 12.6763 15.0594 12.9855 15.0594H15.2382C15.5032 15.0594 15.7682 15.2799 15.7682 15.5886V35.6529C15.7682 39.1366 13.8688 41.165 10.5562 41.165C9.54033 41.165 8.74533 41.165 6.49283 40.0626L1.855 37.4169C0.706667 36.7553 0 35.5206 0 34.1977V13.869C0 12.5462 0.706667 11.3115 1.855 10.6499L19.4783 0.463491C20.5825 -0.153846 22.0842 -0.153846 23.1883 0.463491L40.8117 10.6499C41.96 11.3113 42.6667 12.546 42.6667 13.869V34.1979C42.6667 35.5208 41.96 36.7555 40.8117 37.4169L23.1883 47.6036C22.6142 47.8682 21.9517 48.0005 21.3333 48.0005V48.0003ZM26.766 34.0214C19.0365 34.0214 17.4465 30.4937 17.4465 27.4951C17.4465 27.2305 17.6673 26.9659 17.9765 26.9659H20.2732C20.5382 26.9659 20.7592 27.1423 20.7592 27.4069C21.1125 29.7439 22.1283 30.8906 26.8102 30.8906C30.5203 30.8906 32.1105 30.0528 32.1105 28.0685C32.1105 26.9218 31.6688 26.084 25.8827 25.5106C21.0683 25.0255 18.0648 23.9672 18.0648 20.1309C18.0648 16.5589 21.0682 14.4423 26.1035 14.4423C31.757 14.4423 34.5397 16.3825 34.893 20.6158C34.893 20.7481 34.8488 20.8804 34.7605 21.0127C34.6722 21.1009 34.5397 21.1891 34.4072 21.1891H32.1105C31.8895 21.1891 31.6688 21.0127 31.6245 20.7922C31.0945 18.3669 29.7253 17.5732 26.1035 17.5732C22.0402 17.5732 21.5542 18.9843 21.5542 20.0426C21.5542 21.3215 22.1283 21.7182 27.6052 22.4237C33.038 23.1293 35.5997 24.1436 35.5997 27.936C35.5555 31.8166 32.3755 34.0214 26.766 34.0214V34.0214Z" fill="#539E43"/>
</g>
<defs>
<clipPath id="clip0">
<rect width="42.6667" height="48" fill="white"/>
</clipPath>
</defs>
</svg>
