<svg width="48" height="48" viewBox="0 0 48 48" fill="none" xmlns="http://www.w3.org/2000/svg">
<path d="M11.4 20.6865C11.8625 20.6284 12.332 20.6624 12.7813 20.7868C13.2305 20.9111 13.6507 21.1233 14.0175 21.411C14.2542 21.7756 14.4051 22.189 14.4589 22.6203C14.5126 23.0516 14.4679 23.4895 14.328 23.901C14.2053 24.914 13.7154 25.8469 12.951 26.523C12.0292 27.1168 10.9396 27.3952 9.846 27.3165H7.746L9.036 20.7L11.4 20.6865ZM3 34.0155H6.45L7.2675 29.8155H10.218C11.305 29.8432 12.3897 29.703 13.434 29.4C14.2916 29.1169 15.0756 28.6465 15.729 28.023C16.8591 27.0068 17.6208 25.6449 17.895 24.15C18.1115 23.406 18.1496 22.6214 18.0062 21.8599C17.8629 21.0984 17.5422 20.3814 17.07 19.767C16.5008 19.2029 15.8152 18.7698 15.0613 18.4981C14.3074 18.2263 13.5032 18.1223 12.705 18.1935H6.0855L3 34.0155Z" fill="#8993BE"/>
<path d="M20.4256 13.9845H23.8501L23.0206 18.1845H26.0671C27.4668 18.0379 28.873 18.3936 30.0346 19.188C30.419 19.6249 30.6817 20.1552 30.7965 20.7257C30.9113 21.2963 30.8741 21.8869 30.6886 22.4385L29.2576 29.802H25.7926L27.1546 22.8015C27.2494 22.5344 27.2832 22.2495 27.2536 21.9676C27.224 21.6858 27.1318 21.4141 26.9836 21.1725C26.4871 20.8162 25.8734 20.6628 25.2676 20.7435H22.5331L20.7706 29.8095H17.3386L20.4256 13.9845Z" fill="#8993BE"/>
<path d="M38.3084 20.6865C38.771 20.6284 39.2404 20.6625 39.6897 20.7868C40.139 20.9112 40.5592 21.1233 40.9259 21.411C41.1626 21.7756 41.3135 22.1891 41.3673 22.6204C41.4211 23.0516 41.3763 23.4895 41.2364 23.901C41.1137 24.9141 40.6238 25.847 39.8594 26.523C38.936 27.1181 37.8441 27.3966 36.7484 27.3165H34.6499L35.9369 20.6925L38.3084 20.6865ZM29.9084 34.0155H33.3584L34.1759 29.8155H37.128C38.2169 29.8438 39.3038 29.7037 40.3499 29.4C41.2076 29.1169 41.9915 28.6465 42.6449 28.023C43.7723 27.0057 44.5312 25.6439 44.8034 24.15C45.0199 23.406 45.058 22.6214 44.9147 21.8599C44.7714 21.0984 44.4506 20.3814 43.9784 19.767C43.409 19.2039 42.7235 18.7718 41.9699 18.5008C41.2163 18.2298 40.4126 18.1265 39.6149 18.198H32.9849L29.9084 34.0155Z" fill="#8993BE"/>
</svg>
