<svg width="48" height="48" viewBox="0 0 48 48" fill="none" xmlns="http://www.w3.org/2000/svg">
<path d="M23.7967 0.0135498C11.6407 0.0135498 12.3997 5.30578 12.3997 5.30578L12.4132 10.7887H24.0135V12.4348H7.80579C7.80579 12.4348 0.0271606 11.5492 0.0271606 23.8626C0.0271606 36.1764 6.81654 35.7397 6.81654 35.7397H10.8684V30.0256C10.8684 30.0256 10.65 23.2096 17.5494 23.2096H29.0548C29.0548 23.2096 35.5189 23.3144 35.5189 16.9378V6.39435C35.5189 6.39435 36.5006 0.0135498 23.7967 0.0135498ZM17.4004 3.7007C17.6745 3.70045 17.946 3.75448 18.1993 3.85967C18.4526 3.96487 18.6827 4.11919 18.8765 4.31378C19.0704 4.50837 19.2241 4.73943 19.3289 4.99372C19.4337 5.24802 19.4875 5.52056 19.4872 5.79576C19.4875 6.07096 19.4337 6.3435 19.3289 6.5978C19.2241 6.85209 19.0704 7.08315 18.8765 7.27774C18.6827 7.47234 18.4526 7.62665 18.1993 7.73185C17.946 7.83705 17.6745 7.89107 17.4004 7.89082C17.1262 7.89107 16.8547 7.83705 16.6014 7.73185C16.3481 7.62665 16.118 7.47234 15.9242 7.27774C15.7303 7.08315 15.5766 6.85209 15.4718 6.5978C15.367 6.3435 15.3132 6.07096 15.3135 5.79576C15.3132 5.52056 15.367 5.24802 15.4718 4.99372C15.5766 4.73943 15.7303 4.50837 15.9242 4.31378C16.118 4.11919 16.3481 3.96487 16.6014 3.85967C16.8547 3.75448 17.1262 3.70045 17.4004 3.7007V3.7007Z" fill="url(#paint0_linear)"/>
<path d="M24.1419 47.8355C36.2979 47.8355 35.5389 42.5432 35.5389 42.5432L35.5254 37.0605H23.925V35.4144H40.1327C40.1327 35.4144 47.9113 36.3 47.9113 23.9862C47.9113 11.6726 41.1219 12.1093 41.1219 12.1093H37.0701V17.8232C37.0701 17.8232 37.2885 24.6392 30.3891 24.6392H18.8837C18.8837 24.6392 12.4196 24.5344 12.4196 30.9112V41.4548C12.4196 41.4548 11.4381 47.8355 24.1417 47.8355H24.1419ZM30.5383 44.1487C30.2642 44.1489 29.9927 44.0949 29.7394 43.9897C29.4861 43.8845 29.256 43.7302 29.0621 43.5356C28.8683 43.341 28.7146 43.11 28.6098 42.8557C28.505 42.6014 28.4512 42.3288 28.4514 42.0536C28.4512 41.7784 28.505 41.5058 28.6097 41.2515C28.7145 40.9972 28.8682 40.7661 29.0621 40.5715C29.2559 40.3769 29.486 40.2226 29.7394 40.1174C29.9927 40.0122 30.2642 39.9581 30.5383 39.9584C30.8124 39.9581 31.0839 40.0121 31.3372 40.1173C31.5905 40.2225 31.8207 40.3769 32.0145 40.5714C32.2083 40.766 32.362 40.9971 32.4668 41.2514C32.5716 41.5057 32.6254 41.7782 32.6252 42.0534C32.6254 42.3286 32.5716 42.6012 32.4668 42.8555C32.362 43.1098 32.2083 43.3408 32.0145 43.5354C31.8207 43.73 31.5905 43.8843 31.3372 43.9895C31.0839 44.0947 30.8124 44.1487 30.5383 44.1485V44.1487Z" fill="url(#paint1_linear)"/>
<defs>
<linearGradient id="paint0_linear" x1="4.62881" y1="4.31485" x2="28.4507" y2="27.8069" gradientUnits="userSpaceOnUse">
<stop stop-color="#387EB8"/>
<stop offset="1" stop-color="#366994"/>
</linearGradient>
<linearGradient id="paint1_linear" x1="19.1943" y1="19.4599" x2="44.7716" y2="43.5445" gradientUnits="userSpaceOnUse">
<stop stop-color="#FFE052"/>
<stop offset="1" stop-color="#FFC331"/>
</linearGradient>
</defs>
</svg>
