<svg width="54" height="48" viewBox="0 0 54 48" fill="none" xmlns="http://www.w3.org/2000/svg">
<g clip-path="url(#clip0)">
<path d="M44.3122 15.542C43.7386 15.3452 43.1602 15.1629 42.5775 14.9952C42.6754 14.5952 42.7655 14.2001 42.8455 13.8119C44.1587 7.43693 43.3002 2.30114 40.3678 0.610191C37.5562 -1.01086 32.9581 0.679454 28.3143 4.72093C27.8566 5.11994 27.4091 5.53046 26.9722 5.95209C26.6797 5.67172 26.382 5.39679 26.0794 5.12745C21.2124 0.806191 16.3341 -1.01507 13.4048 0.680717C10.5958 2.30682 9.764 7.13482 10.9463 13.1765C11.0639 13.7749 11.1968 14.3702 11.3446 14.9618C10.6541 15.158 9.98779 15.3668 9.3501 15.5891C3.644 17.5786 0 20.6963 0 23.9302C0 27.2702 3.912 30.6203 9.85516 32.6517C10.337 32.8157 10.8228 32.9676 11.3122 33.1075C11.1533 33.7446 11.0122 34.3862 10.8891 35.0312C9.76189 40.9681 10.6421 45.682 13.4436 47.2978C16.3371 48.9664 21.1935 47.2515 25.9221 43.1178C26.3055 42.7817 26.6805 42.4361 27.0467 42.0813C27.5199 42.5379 28.0057 42.9811 28.5036 43.4106C33.0842 47.3521 37.608 48.9437 40.4067 47.3235C43.2975 45.65 44.2371 40.586 43.0173 34.4249C42.9212 33.9423 42.8134 33.462 42.6941 32.9845C43.0352 32.8835 43.3699 32.7795 43.6962 32.6712C49.8747 30.6243 53.8947 27.3148 53.8947 23.9302C53.8947 20.6845 50.1331 17.5458 44.3122 15.542V15.542ZM42.9722 30.486C42.6775 30.5835 42.3752 30.6776 42.0669 30.7691C41.3848 28.6098 40.4644 26.3138 39.3379 23.9413C40.4128 21.6256 41.2979 19.3588 41.9608 17.2136C42.5122 17.3731 43.0472 17.5413 43.5629 17.7188C48.5503 19.4359 51.5924 21.9742 51.5924 23.9302C51.5924 26.0136 48.3069 28.7182 42.9722 30.486V30.486ZM40.7587 34.8721C41.2981 37.5963 41.3749 40.0595 41.0177 41.9851C40.6968 43.7155 40.0514 44.8689 39.2531 45.331C37.5547 46.3142 33.9225 45.0363 30.0053 41.6653C29.5422 41.2661 29.0903 40.854 28.6501 40.4296C30.1688 38.7687 31.6865 36.838 33.1678 34.6936C35.7733 34.4624 38.2347 34.0843 40.4669 33.5683C40.5768 34.0119 40.6745 34.4468 40.7587 34.8721V34.8721ZM18.3739 45.1611C16.7145 45.747 15.3928 45.7639 14.5939 45.3032C12.8939 44.3228 12.1872 40.5378 13.1512 35.4607C13.2658 34.8608 13.397 34.2641 13.5446 33.6715C15.7522 34.1599 18.1958 34.511 20.8074 34.7228C22.2987 36.8211 23.8602 38.7498 25.4339 40.4386C25.0995 40.7622 24.7571 41.0775 24.4072 41.3843C22.316 43.2121 20.2206 44.5089 18.3739 45.1611V45.1611ZM10.6 30.4731C7.972 29.5748 5.80168 28.4075 4.31411 27.1336C2.97726 25.9889 2.30253 24.8523 2.30253 23.9302C2.30253 21.9677 5.22821 19.4645 10.108 17.7632C10.7002 17.5569 11.32 17.3622 11.9632 17.1795C12.6377 19.3731 13.5223 21.6668 14.5899 23.9862C13.5084 26.3399 12.6112 28.6702 11.9301 30.8898C11.4834 30.7618 11.0399 30.6229 10.6 30.4731V30.4731ZM13.2059 12.7342C12.1931 7.55798 12.8657 3.65335 14.5585 2.67335C16.3615 1.62956 20.3484 3.11777 24.5507 6.84914C24.8248 7.09301 25.0944 7.34182 25.3594 7.59545C23.7935 9.27693 22.2463 11.1912 20.7682 13.2771C18.2335 13.5121 15.8072 13.8893 13.5764 14.3948C13.439 13.8445 13.3154 13.2909 13.2059 12.7344V12.7342ZM36.4537 18.4748C35.9268 17.5647 35.3803 16.666 34.8147 15.7795C36.5343 15.9969 38.1819 16.2856 39.7291 16.6384C39.2646 18.1272 38.6857 19.6837 38.0042 21.2795C37.5061 20.3343 36.9891 19.3993 36.4537 18.4748V18.4748ZM26.9733 9.24093C28.0352 10.3915 29.0987 11.6759 30.1448 13.0696C28.0227 12.9693 25.8971 12.9689 23.7749 13.0683C24.8221 11.6875 25.8947 10.4047 26.9733 9.24093ZM17.432 18.4906C16.9032 19.4076 16.3959 20.3369 15.9105 21.2776C15.2402 19.6875 14.6665 18.1239 14.1981 16.614C15.7358 16.27 17.3756 15.9887 19.0842 15.7752C18.5123 16.6672 17.9614 17.5725 17.432 18.4904V18.4906ZM19.1333 32.2489C17.368 32.0519 15.7036 31.7851 14.1663 31.4504C14.6421 29.9136 15.2284 28.3167 15.9133 26.6925C16.4006 27.6339 16.91 28.5637 17.4411 29.4811C17.9872 30.4243 18.5526 31.3481 19.1333 32.2489ZM27.0368 38.7816C25.9455 37.6043 24.8571 36.3018 23.7941 34.9009C24.8261 34.9413 25.8781 34.962 26.9474 34.962C28.0459 34.962 29.1318 34.9373 30.2006 34.8898C29.1512 36.3159 28.0916 37.6203 27.0368 38.7816ZM38.0259 26.6096C38.7463 28.2517 39.3535 29.8401 39.8356 31.3506C38.2731 31.7072 36.5859 31.9944 34.8082 32.2077C35.3779 31.3046 35.9295 30.3903 36.4627 29.4653C37.0049 28.5251 37.5261 27.573 38.0259 26.6096V26.6096ZM34.4684 28.315C33.652 29.7332 32.7898 31.1245 31.8829 32.4866C30.2403 32.6029 28.5941 32.6607 26.9474 32.6599C25.2701 32.6599 23.6387 32.6077 22.0678 32.5058C21.1373 31.1468 20.2586 29.7531 19.4335 28.3277H19.4337C18.6125 26.9098 17.8454 25.4612 17.1341 23.9851C17.8436 22.5087 18.6083 21.0595 19.4267 19.6405L19.4265 19.6407C20.2446 18.2214 21.1163 16.8337 22.0398 15.4805C23.6425 15.3592 25.2861 15.2961 26.9472 15.2961H26.9474C28.616 15.2961 30.2617 15.3599 31.864 15.482C32.7781 16.8331 33.6443 18.2161 34.4608 19.6283C35.282 21.0441 36.0568 22.4863 36.7842 23.9525C36.0643 25.4337 35.2919 26.8888 34.4684 28.315V28.315ZM39.2179 2.60472C41.0225 3.64556 41.7244 7.84282 40.5905 13.347C40.5181 13.6982 40.4368 14.0559 40.3484 14.4186C38.1122 13.9024 35.6842 13.5186 33.1421 13.2801C31.6613 11.1712 30.1267 9.25398 28.5863 7.59419C28.99 7.20503 29.4034 6.82597 29.8259 6.45735C33.8048 2.99482 37.5236 1.62766 39.2179 2.60472V2.60472ZM26.9474 19.1176C29.6053 19.1176 31.76 21.2723 31.76 23.9302C31.76 26.5881 29.6053 28.7428 26.9474 28.7428C24.2895 28.7428 22.1347 26.5881 22.1347 23.9302C22.1347 21.2723 24.2895 19.1176 26.9474 19.1176V19.1176Z" fill="#00D8FF"/>
</g>
<defs>
<clipPath id="clip0">
<rect width="53.8947" height="48" fill="white"/>
</clipPath>
</defs>
</svg>
