<svg width="50" height="48" viewBox="0 0 50 48" fill="none" xmlns="http://www.w3.org/2000/svg">
<g clip-path="url(#clip0)">
<path d="M3.2519 30.5348C0.695183 16.9812 7.45222 3.90941 22.9613 2.17033C20.8224 -0.108208 17.9007 -0.125309 16.5566 0.152003C14.1829 0.906011 14.2574 2.43754 11.565 4.41565C8.88844 5.93979 7.54421 4.77263 5.59461 6.35275C3.64891 7.92101 5.00659 11.5214 4.19054 12.2216C3.38053 13.6213 0.86806 14.8684 0.410627 16.6364C0.0325184 18.8977 1.43659 20.5129 1.3826 22.4512C1.54476 24.0663 -0.230014 24.9797 0.0249173 26.2889C0.788736 28.4275 2.26083 29.7148 2.95487 30.3081C3.11391 30.42 3.28191 30.6954 3.2517 30.5348H3.2519Z" fill="#FF0090"/>
<path d="M30.848 11.7725C30.7133 11.7724 30.5798 11.746 30.4553 11.6945C30.3308 11.6431 30.2177 11.5677 30.1224 11.4727C30.0272 11.3777 29.9516 11.2649 29.9 11.1408C29.8485 11.0166 29.8219 10.8836 29.822 10.7492C29.822 10.6148 29.8485 10.4818 29.9001 10.3577C29.9517 10.2335 30.0273 10.1208 30.1226 10.0258C30.2179 9.93075 30.331 9.8554 30.4555 9.80399C30.58 9.75259 30.7134 9.72613 30.8482 9.72615C31.1204 9.72615 31.3814 9.83394 31.5738 10.0258C31.7662 10.2177 31.8744 10.4779 31.8744 10.7493C31.8744 11.0207 31.7662 11.2809 31.5738 11.4728C31.3814 11.6647 31.1204 11.7725 30.8482 11.7725H30.848ZM3.85066 32.0129C1.39354 20.2333 8.99664 10.3906 23.7203 15.2362C32.3597 20.2757 43.2279 19.9474 43.7177 16.6898C44.9275 12.7847 38.2098 4.73726 28.1662 2.6375C8.24062 -1.23923 -2.50137 20.2333 3.85066 32.0127V32.0129Z" fill="url(#paint0_radial)"/>
<path d="M36.536 33.3266C39.4946 33.6463 42.3032 32.9383 44.9057 30.823C40.9737 35.1961 36.0572 37.3947 30.4161 37.9929C33.1097 40.2761 35.7071 41.3045 38.1919 40.8643C31.2873 42.7641 25.5025 40.6731 18.4654 33.6857C18.097 35.5667 20.0895 38.4974 22.1431 40.368C10.2273 35.2172 9.1826 19.1716 23.7127 15.2248C8.65071 8.00921 0.133722 22.0291 4.31806 33.5196C8.41235 42.3694 19.3225 49.1827 31.2801 47.6844C37.0882 46.9751 45.7617 42.9822 49.305 33.5196C46.8077 35.754 42.3439 37.7 40.352 37.8493C47.0936 34.4899 50.7332 28.7814 49.7115 20.9793C48.3151 24.2942 46.4725 26.8402 44.1678 28.5886C49.0637 20.9791 48.2237 17.046 44.5999 12.7235C47.1917 19.8306 43.8388 27.7184 36.536 33.3266V33.3266Z" fill="url(#paint1_radial)"/>
<path d="M33.0761 41.5144C32.5645 41.4192 34.2358 42.1893 31.0047 41.3364C27.7738 40.4837 24.4841 39.6618 18.4653 33.6855C18.097 35.5667 20.0895 38.4972 22.1431 40.368C27.6869 44.2232 23.9167 42.4202 32.3638 45.3317C33.0416 43.9865 33.0761 42.791 33.0761 41.5144V41.5144Z" fill="url(#paint2_linear)"/>
<path d="M22.3359 11.2423C22.3359 11.2423 23.0703 10.1614 23.3562 9.674C23.7066 9.07663 24.2445 7.98798 24.2445 7.98798C24.2445 7.98798 18.5916 6.14901 17.2043 5.92456C12.8917 7.0408 12.8761 8.84226 15.2871 11.5996C15.5553 11.9067 22.3359 11.2423 22.3359 11.2423Z" fill="url(#paint3_linear)"/>
</g>
<defs>
<radialGradient id="paint0_radial" cx="0" cy="0" r="1" gradientUnits="userSpaceOnUse" gradientTransform="translate(34.9748 13.4685) scale(37.5959 26.8155)">
<stop stop-color="#F80090"/>
<stop offset="1" stop-color="#4D008E"/>
</radialGradient>
<radialGradient id="paint1_radial" cx="0" cy="0" r="1" gradientUnits="userSpaceOnUse" gradientTransform="translate(35.3056 14.2702) scale(38.1071 28.7424)">
<stop stop-color="#57008E"/>
<stop offset="0.29175" stop-color="#5C008E"/>
<stop offset="1" stop-color="#F80090"/>
</radialGradient>
<linearGradient id="paint2_linear" x1="21.094" y1="33.6855" x2="27.8009" y2="44.9981" gradientUnits="userSpaceOnUse">
<stop stop-color="#F70090"/>
<stop offset="0.66971" stop-color="#E50090"/>
<stop offset="0.82715" stop-color="#D6008F" stop-opacity="0.2"/>
<stop offset="1" stop-color="#C10090" stop-opacity="0"/>
</linearGradient>
<linearGradient id="paint3_linear" x1="20.5341" y1="10.0436" x2="19.561" y2="8.17444" gradientUnits="userSpaceOnUse">
<stop stop-color="#B2008F" stop-opacity="0.151"/>
<stop offset="0.40035" stop-color="#F70090" stop-opacity="0.4"/>
<stop offset="0.649" stop-color="#F60090" stop-opacity="0.892"/>
<stop offset="1" stop-color="#FF0090"/>
</linearGradient>
<clipPath id="clip0">
<rect width="49.8947" height="48" fill="white"/>
</clipPath>
</defs>
</svg>
