<svg width="64" height="48" viewBox="0 0 64 48" fill="none" xmlns="http://www.w3.org/2000/svg">
<path d="M55.0702 27.6285C52.8437 27.64 50.9085 28.1763 49.2882 28.969C48.6935 27.7915 48.099 26.7425 47.9942 25.973C47.8775 25.0755 47.7377 24.5275 47.8775 23.455C48.0175 22.3825 48.647 20.8553 48.6352 20.7388C48.6237 20.6223 48.4952 20.0743 47.213 20.0628C45.9307 20.051 44.8232 20.3075 44.695 20.6455C44.5667 20.9835 44.322 21.753 44.1587 22.5455C43.9372 23.7115 41.5942 27.873 40.2537 30.053C39.8222 29.2023 39.4492 28.456 39.3675 27.8615C39.251 26.964 39.111 26.416 39.251 25.3435C39.391 24.271 40.0205 22.744 40.0087 22.6273C39.997 22.5108 39.8687 21.9628 38.5865 21.9513C37.304 21.9395 36.1965 22.196 36.0685 22.534C35.9402 22.8723 35.8002 23.6648 35.5322 24.4343C35.264 25.2038 32.1515 32.1518 31.3355 33.9468C31.0057 34.6733 30.6598 35.3924 30.298 36.1035C30.298 36.1035 30.2862 36.1385 30.2512 36.1968C30.1376 36.4197 30.0211 36.6412 29.9017 36.8613V36.8727C29.7267 37.1877 29.5402 37.479 29.447 37.479C29.377 37.479 29.2487 36.6397 29.4702 35.4972C29.9365 33.0842 31.044 29.3305 31.0325 29.2023C31.0325 29.1323 31.2422 28.4795 30.3097 28.1413C29.4002 27.8033 29.074 28.3628 28.9922 28.3628C28.9107 28.3628 28.8522 28.561 28.8522 28.561C28.8522 28.561 29.8667 24.341 26.9172 24.341C25.0755 24.341 22.534 26.3578 21.275 28.1763C19.8438 28.9551 18.4138 29.7362 16.985 30.5195C16.2975 30.9043 15.5862 31.289 14.9217 31.6503C14.875 31.6038 14.8285 31.5453 14.7817 31.4988C11.2145 27.6868 4.61649 24.9938 4.89624 19.8763C5.00124 18.011 5.64224 13.1148 17.568 7.1695C27.3835 2.3315 35.1942 3.672 36.5465 6.64475C38.4815 10.8883 32.3615 18.7688 22.2192 19.911C18.349 20.3425 16.3205 18.8503 15.8077 18.2908C15.2715 17.7078 15.1897 17.6728 14.9915 17.7895C14.6652 17.9645 14.875 18.489 14.9915 18.792C15.2947 19.5845 16.542 20.9835 18.652 21.6715C20.5172 22.2775 25.052 22.6158 30.5427 20.494C36.6862 18.1158 41.4892 11.506 40.0787 5.96875C38.668 0.349751 29.342 -1.50375 20.5172 1.632C15.2715 3.4975 9.58249 6.435 5.49074 10.2588C0.629492 14.805 -0.140008 18.757 0.174742 20.4125C1.30574 26.2878 9.40774 30.1115 12.6485 32.9442C12.4852 33.0375 12.3335 33.1193 12.2055 33.1893C10.585 33.9935 4.40649 37.2225 2.86774 40.6382C1.11924 44.5085 3.14774 47.2832 4.48824 47.656C8.64999 48.8102 12.9282 46.7353 15.2247 43.3078C17.5212 39.8805 17.2415 35.4272 16.1807 33.3872C16.169 33.364 16.1575 33.3405 16.134 33.3172C16.5537 33.0725 16.985 32.816 17.4047 32.5713C18.1762 32.1152 18.9575 31.6759 19.748 31.2538C19.3515 32.338 19.06 33.632 18.9202 35.4972C18.7452 37.689 19.6427 40.5332 20.8202 41.6522C21.345 42.1422 21.9627 42.1538 22.3592 42.1538C23.7347 42.1538 24.3527 41.0113 25.0405 39.659C25.8797 38.0038 26.6375 36.0802 26.6375 36.0802C26.6375 36.0802 25.6932 41.2795 28.258 41.2795C29.1905 41.2795 30.1347 40.067 30.5545 39.4492V39.4608C30.5545 39.4608 30.5777 39.4257 30.6245 39.3442C30.7177 39.1927 30.776 39.0993 30.776 39.0993V39.0762C31.149 38.4232 31.9885 36.9428 33.2357 34.483C34.8445 31.3123 36.395 27.3488 36.395 27.3488C36.395 27.3488 36.535 28.3163 37.0127 29.925C37.2927 30.8693 37.8752 31.9067 38.3417 32.9092C37.9687 33.434 37.7355 33.7253 37.7355 33.7253L37.7472 33.737C37.444 34.1332 37.1177 34.5645 36.7562 34.9845C35.4855 36.4998 33.9702 38.237 33.7602 38.738C33.5152 39.3325 33.5737 39.764 34.0402 40.1138C34.3782 40.3703 34.9842 40.405 35.6022 40.3703C36.7447 40.2885 37.549 40.0087 37.9452 39.834C38.5632 39.6125 39.286 39.2742 39.962 38.773C41.2095 37.852 41.967 36.5348 41.8972 34.798C41.8622 33.842 41.5475 32.886 41.1627 31.9883C41.2795 31.8253 41.3842 31.662 41.501 31.4988C43.471 28.6193 44.9982 25.46 44.9982 25.46C44.9982 25.46 45.1382 26.4275 45.616 28.0365C45.8492 28.8525 46.3272 29.7385 46.7467 30.601C44.8932 32.105 43.7507 33.8535 43.3427 34.996C42.6085 37.1177 43.1795 38.0735 44.2637 38.295C44.7532 38.4 45.4527 38.1668 45.9657 37.9453C46.6185 37.7355 47.388 37.3742 48.1225 36.8377C49.37 35.917 50.5705 34.6345 50.5005 32.8978C50.4655 32.105 50.2557 31.3238 49.9642 30.566C51.538 29.9135 53.5665 29.552 56.1542 29.855C61.7035 30.5078 62.7992 33.97 62.5892 35.4275C62.3795 36.8845 61.2137 37.6773 60.8292 37.922C60.4442 38.167 60.3162 38.2485 60.3512 38.4232C60.3977 38.6797 60.5842 38.6682 60.9107 38.6215C61.3655 38.54 63.8252 37.444 63.93 34.7627C64.105 31.3355 60.8407 27.5935 55.0702 27.6285V27.6285ZM12.2637 42.0605C10.4217 44.0655 7.85724 44.8233 6.74974 44.1823C5.56074 43.4943 6.02699 40.5333 8.28849 38.4118C9.66399 37.1178 11.436 35.9167 12.6135 35.1825C12.8815 35.0192 13.278 34.7863 13.756 34.4948C13.8375 34.448 13.8842 34.4248 13.8842 34.4248L14.164 34.2497C14.9915 37.2807 14.199 39.9505 12.2637 42.0605V42.0605ZM25.67 32.9442C25.0287 34.5065 23.6882 38.505 22.8722 38.2835C22.1727 38.097 21.7412 35.066 22.7322 32.07C23.2335 30.566 24.2942 28.7708 24.9122 28.0715C25.9147 26.9523 27.0222 26.579 27.2902 27.034C27.6285 27.6285 26.0662 31.965 25.67 32.9442V32.9442ZM36.733 38.2368C36.4647 38.3768 36.2085 38.47 36.0917 38.4C36.0102 38.3533 36.2085 38.1668 36.2085 38.1668C36.2085 38.1668 37.5957 36.6748 38.1435 35.9985C38.4585 35.6023 38.8312 35.136 39.2277 34.6113V34.7627C39.2277 36.5465 37.5022 37.7473 36.7327 38.2368H36.733ZM45.2662 36.29C45.068 36.15 45.103 35.6838 45.7675 34.2265C46.024 33.6553 46.63 32.6995 47.6677 31.7785C47.7842 32.1515 47.866 32.513 47.8542 32.851C47.8425 35.101 46.234 35.9403 45.2662 36.29Z" fill="#CD6799"/>
</svg>
