<svg width="49" height="48" viewBox="0 0 49 48" fill="none" xmlns="http://www.w3.org/2000/svg">
<g clip-path="url(#clip0)">
<path d="M44.8853 36.9927C42.2343 36.9267 40.1796 37.1918 38.4564 37.9207C37.9592 38.1194 37.1638 38.1196 37.0975 38.7493C37.3627 39.0145 37.3958 39.4453 37.6278 39.8097C38.0259 40.4724 38.7213 41.3672 39.351 41.8314C40.0469 42.3615 40.743 42.8916 41.4718 43.3556C42.7644 44.151 44.2227 44.6148 45.4819 45.4103C46.2112 45.8739 46.9398 46.4708 47.6689 46.9678C48.0335 47.2326 48.2653 47.6638 48.7295 47.8293V47.7301C48.4973 47.4316 48.431 47.0009 48.1992 46.6695C47.8682 46.3381 47.5364 46.0398 47.205 45.7084C46.244 44.4162 45.051 43.2893 43.7587 42.3615C42.6983 41.6324 40.3783 40.6383 39.9476 39.412C39.9476 39.412 39.9143 39.379 39.8813 39.3459C40.6103 39.2796 41.4718 39.0145 42.168 38.8156C43.2947 38.5171 44.3219 38.5836 45.4819 38.2853C46.012 38.1527 46.5423 37.987 47.0724 37.8213V37.5232C46.4762 36.9267 46.0453 36.1314 45.4156 35.568C43.7255 34.1095 41.8695 32.6847 39.9476 31.4918C38.9202 30.8289 37.5945 30.3981 36.501 29.8348C36.1036 29.6358 35.4406 29.5366 35.2088 29.2051C34.612 28.4762 34.2806 27.5152 33.8499 26.6535C32.8891 24.8307 31.961 22.8093 31.1324 20.8874C30.5362 19.5948 30.1716 18.3023 29.4425 17.1095C26.0291 11.4758 22.3175 8.06246 16.6177 4.71522C15.3914 4.01941 13.9333 3.72113 12.3758 3.35675C11.5476 3.32341 10.7189 3.25732 9.89047 3.22398C9.36019 2.99198 8.8299 2.36246 8.3659 2.06418C6.47733 0.871033 1.60552 -1.71354 0.213712 1.69979C-0.681145 3.8537 1.53943 5.97446 2.30133 7.06837C2.86514 7.83046 3.5939 8.69199 3.99162 9.5537C4.22362 10.1167 4.28971 10.7137 4.52171 11.3101C5.05219 12.7678 5.54895 14.392 6.24514 15.7508C6.60971 16.4467 7.00724 17.1756 7.47124 17.8053C7.73638 18.1697 8.20019 18.3356 8.29981 18.932C7.836 19.5948 7.80266 20.5891 7.53733 21.4175C6.34438 25.1623 6.80857 29.8017 8.49847 32.5522C9.02857 33.3804 10.288 35.2036 11.9781 34.5074C13.4695 33.911 13.1381 32.0221 13.5686 30.3651C13.6684 29.967 13.6021 29.7023 13.8008 29.4371V29.5036C14.2648 30.4312 14.7286 31.3263 15.1594 32.2541C16.1869 33.8777 17.9762 35.568 19.4674 36.6948C20.263 37.291 20.8926 38.3185 21.8869 38.683V38.5834H21.8204C21.6215 38.2851 21.3232 38.1527 21.0583 37.9206C20.4619 37.3244 19.7989 36.5952 19.335 35.9324C17.9434 34.0764 16.717 32.0219 15.6234 29.9009C15.0933 28.8739 14.6291 27.747 14.1985 26.7198C13.9994 26.3217 13.9994 25.7255 13.6682 25.5268C13.171 26.2558 12.4421 26.8855 12.0775 27.7802C11.4482 29.2051 11.3817 30.9615 11.1497 32.784C11.0171 32.8175 11.0832 32.784 11.017 32.8507C9.95676 32.5851 9.59219 31.4918 9.19428 30.5638C8.2 28.211 8.03428 24.4331 8.89619 21.7158C9.12819 21.0198 10.1225 18.8327 9.72476 18.1699C9.5259 17.5402 8.86286 17.1756 8.49847 16.6787C8.06781 16.0489 7.60362 15.2539 7.30552 14.5577C6.51009 12.7019 6.11238 10.6472 5.25085 8.79141C4.85314 7.9297 4.15752 7.03522 3.5939 6.23979C2.96438 5.34513 2.26838 4.71522 1.77124 3.65484C1.60571 3.29046 1.37352 2.69389 1.63866 2.29618C1.70495 2.03103 1.83733 1.93179 2.10266 1.86551C2.53352 1.50075 3.75981 1.96475 4.19028 2.1636C5.41657 2.66037 6.44381 3.12475 7.47124 3.82056C7.93505 4.15198 8.43219 4.7817 9.02857 4.94741H9.72457C10.7851 5.17922 11.9779 5.0137 12.9722 5.31179C14.7288 5.87503 16.3192 6.7036 17.7444 7.59846C22.0857 10.3489 25.6644 14.2594 28.0838 18.932C28.4815 19.6939 28.647 20.3903 29.0116 21.1853C29.7078 22.8093 30.5693 24.4663 31.265 26.0569C31.961 27.6143 32.6236 29.2051 33.6179 30.4977C34.115 31.1933 36.1032 31.5581 36.9981 31.9227C37.661 32.2207 38.6884 32.4861 39.2848 32.8505C40.4114 33.5461 41.5381 34.3419 42.5987 35.1038C43.129 35.5015 44.7857 36.3301 44.8853 36.9927V36.9927Z" fill="#00546B"/>
<path d="M11.0831 8.1947C10.5198 8.1947 10.1223 8.26137 9.72461 8.36061V8.42689H9.7909C10.0562 8.95718 10.5198 9.32175 10.8511 9.78556C11.1164 10.3157 11.3482 10.8461 11.6136 11.3764C11.6465 11.3431 11.6797 11.3101 11.6797 11.3101C12.1438 10.9785 12.3757 10.4484 12.3757 9.65299C12.1768 9.42118 12.1437 9.18918 11.9779 8.95718C11.7793 8.62556 11.3482 8.46004 11.0831 8.1947V8.1947Z" fill="#00546B"/>
</g>
<defs>
<clipPath id="clip0">
<rect width="48.7619" height="48" fill="white"/>
</clipPath>
</defs>
</svg>
