<svg width="40" height="48" viewBox="0 0 40 48" fill="none" xmlns="http://www.w3.org/2000/svg">
<g clip-path="url(#clip0)">
<path d="M37.3531 6.34384C32.9008 -0.0284701 24.1076 -1.91715 17.7499 2.1334L6.584 9.25018C5.0756 10.1991 3.7818 11.4524 2.78529 12.9298C1.78878 14.4072 1.11149 16.0763 0.796723 17.8303C0.264052 20.785 0.732187 23.8329 2.12701 26.4915C1.17122 27.9414 0.519338 29.57 0.210749 31.2789C-0.107324 33.0683 -0.0648875 34.9032 0.335569 36.676C0.736026 38.4488 1.48644 40.1237 2.5428 41.6026C6.99589 47.9756 15.7891 49.8635 22.146 45.8129L33.3119 38.6965C34.8204 37.7476 36.1143 36.4944 37.1108 35.0169C38.1073 33.5395 38.7846 31.8703 39.0992 30.1162C39.6317 27.1615 39.1639 24.1137 37.7698 21.4548C38.7253 20.0049 39.3769 18.3764 39.6851 16.6676C40.0034 14.8782 39.9611 13.0433 39.5607 11.2705C39.1603 9.49765 38.4098 7.82268 37.3532 6.34384" fill="#FF3E00"/>
<path d="M16.658 42.209C13.0577 43.1452 9.25586 41.7359 7.13545 38.6795C6.49987 37.7898 6.04837 36.7823 5.80744 35.7158C5.5665 34.6494 5.54098 33.5455 5.73238 32.4691C5.7972 32.1156 5.8864 31.7671 5.99934 31.426L6.20973 30.7847L6.78184 31.205C8.1034 32.176 9.58105 32.9143 11.1511 33.3879L11.5661 33.5139L11.5279 33.9282C11.4772 34.5176 11.6367 35.1059 11.9783 35.5889C12.2898 36.0384 12.7318 36.3815 13.2445 36.5718C13.7572 36.7621 14.316 36.7904 14.8454 36.653C15.0882 36.5881 15.3196 36.4864 15.5316 36.3515L26.7009 29.2337C26.9742 29.0617 27.2087 28.8345 27.3894 28.5668C27.57 28.2991 27.693 27.9967 27.7504 27.6789C27.8077 27.3544 27.7998 27.0218 27.7272 26.7004C27.6546 26.3791 27.5188 26.0754 27.3276 25.807C27.0158 25.3575 26.5737 25.0143 26.0608 24.8239C25.5479 24.6335 24.989 24.605 24.4594 24.7423C24.217 24.8072 23.986 24.9088 23.7743 25.0436L19.512 27.7606C18.8111 28.2062 18.0463 28.542 17.244 28.7566C13.6438 29.6927 9.84184 28.2834 7.72173 25.2268C7.08612 24.3373 6.63458 23.3297 6.39362 22.2633C6.15266 21.1969 6.12712 20.093 6.31851 19.0166C6.50782 17.9615 6.91526 16.9576 7.51476 16.0689C8.11426 15.1803 8.89262 14.4266 9.80007 13.856L20.9685 6.73749C21.6696 6.29118 22.435 5.95491 23.238 5.7404C26.8382 4.80424 30.6402 6.21354 32.7603 9.26996C33.3959 10.1596 33.8474 11.1671 34.0884 12.2336C34.3293 13.3001 34.3549 14.4039 34.1635 15.4803C34.0984 15.8337 34.0092 16.1821 33.8965 16.5233L33.6861 17.1647L33.1142 16.745C31.7928 15.7735 30.315 15.0349 28.7448 14.5612L28.3296 14.4351L28.368 14.0209C28.4183 13.4315 28.2588 12.8434 27.9176 12.3602C27.606 11.9107 27.164 11.5676 26.6513 11.3773C26.1385 11.187 25.5797 11.1586 25.0504 11.2961C24.8076 11.361 24.5763 11.4627 24.3643 11.5976L13.195 18.7157C12.9217 18.8876 12.6872 19.1147 12.5066 19.3823C12.326 19.65 12.2033 19.9524 12.1461 20.2702C12.0885 20.5946 12.0962 20.9273 12.1687 21.2487C12.2412 21.5702 12.377 21.8739 12.5683 22.1422C12.88 22.5918 13.3222 22.935 13.8351 23.1254C14.348 23.3158 14.9069 23.3442 15.4365 23.2069C15.6792 23.1419 15.9105 23.0402 16.1225 22.9054L20.3841 20.1895C21.0846 19.7432 21.8495 19.407 22.6519 19.1926C26.2521 18.2566 30.054 19.6659 32.1743 22.7224C32.8099 23.612 33.2614 24.6195 33.5023 25.6859C33.7432 26.7523 33.7688 27.8561 33.5774 28.9325C33.388 29.9877 32.9805 30.9917 32.381 31.8805C31.7815 32.7693 31.0032 33.5232 30.0958 34.0941L18.9274 41.2119C18.2262 41.6582 17.4608 41.9945 16.6578 42.209" fill="white"/>
</g>
<defs>
<clipPath id="clip0">
<rect width="39.8961" height="48" fill="white"/>
</clipPath>
</defs>
</svg>
