<svg width="48" height="48" viewBox="0 0 48 48" fill="none" xmlns="http://www.w3.org/2000/svg">
<path d="M0 24V48H48V0H0V24Z" fill="#007ACC"/>
<path d="M10.6146 24.1594L10.5994 26.1249H16.8469V43.8774H21.2663V26.1249H27.5138V24.1974C27.5138 23.1305 27.4909 22.2392 27.4605 22.2163C27.4377 22.1859 23.6357 22.1705 19.0262 22.1782L10.6377 22.2011L10.6148 24.1592L10.6146 24.1594Z" fill="white"/>
<path d="M38.7313 22.1453C39.9502 22.4502 40.8799 22.9909 41.7332 23.8748C42.1751 24.3473 42.8302 25.2083 42.8837 25.414C42.8987 25.4749 40.8112 26.8769 39.5465 27.6615C39.5008 27.6921 39.3178 27.4939 39.1121 27.189C38.495 26.2902 37.8474 25.9015 36.8569 25.833C35.4019 25.7339 34.4645 26.4959 34.4722 27.768C34.4722 28.1415 34.5255 28.3624 34.6779 28.6673C34.998 29.3301 35.5922 29.7263 37.4589 30.5339C40.895 32.0121 42.3654 32.9873 43.2799 34.3739C44.3008 35.9207 44.5294 38.3892 43.836 40.2254C43.0742 42.2215 41.1847 43.5779 38.5254 44.0273C37.7027 44.172 35.7523 44.1492 34.8684 43.9892C32.9409 43.6463 31.1122 42.694 29.9846 41.4445C29.5427 40.9568 28.6817 39.6844 28.7351 39.5929C28.758 39.5625 28.956 39.4407 29.1769 39.3111C29.3902 39.1892 30.198 38.7242 30.9598 38.2825L32.3389 37.4824L32.6284 37.9092C33.0322 38.5262 33.9159 39.372 34.4494 39.6539C35.9807 40.4616 38.0837 40.3472 39.1198 39.4176C39.5617 39.0139 39.7445 38.5949 39.7445 37.9776C39.7445 37.4215 39.6759 37.1777 39.3864 36.7589C39.0133 36.2254 38.2513 35.7758 36.0874 34.8389C33.6112 33.772 32.5445 33.1092 31.5694 32.0577C31.0055 31.4483 30.4721 30.4729 30.2512 29.6577C30.0684 28.9797 30.0225 27.2805 30.1674 26.5949C30.678 24.2024 32.4836 22.534 35.0893 22.0386C35.9349 21.8787 37.9007 21.9396 38.7313 22.1455V22.1453Z" fill="white"/>
</svg>
