<svg width="48" height="48" viewBox="0 0 48 48" fill="none" xmlns="http://www.w3.org/2000/svg">
<path d="M0 0H48V48H0V0Z" fill="#F7DF1E"/>
<path d="M12.621 40.1123L16.2942 37.8893C17.0029 39.1457 17.6475 40.2089 19.1938 40.2089C20.676 40.2089 21.6107 39.6291 21.6107 37.3739V22.0367H26.1214V37.4376C26.1214 42.1096 23.3828 44.2362 19.3872 44.2362C15.7787 44.2362 13.6842 42.3674 12.6208 40.1119" fill="black"/>
<path d="M28.5714 39.6288L32.2442 37.5023C33.2111 39.0813 34.4677 40.2411 36.6907 40.2411C38.5599 40.2411 39.7517 39.3066 39.7517 38.0178C39.7517 36.4713 38.5273 35.9234 36.4652 35.0215L35.3377 34.5378C32.0833 33.1527 29.9246 31.4127 29.9246 27.7396C29.9246 24.3563 32.5022 21.7786 36.5299 21.7786C39.3975 21.7786 41.4596 22.7776 42.9416 25.3874L39.4294 27.643C38.6559 26.2576 37.8185 25.7099 36.5297 25.7099C35.2085 25.7099 34.3708 26.5476 34.3708 27.643C34.3708 28.9962 35.2085 29.5443 37.1417 30.382L38.2693 30.8652C42.1037 32.5086 44.2624 34.1839 44.2624 37.9534C44.2624 42.0136 41.0726 44.2366 36.7873 44.2366C32.5987 44.2366 29.8922 42.2389 28.5712 39.6289" fill="black"/>
</svg>
